%TF.GenerationSoftware,KiCad,Pcbnew,8.0.6*%
%TF.CreationDate,2025-03-08T18:58:06-08:00*%
%TF.ProjectId,8CH Thermal Monitor,38434820-5468-4657-926d-616c204d6f6e,rev?*%
%TF.SameCoordinates,PX7df6180PY8670810*%
%TF.FileFunction,Other,User*%
%FSLAX46Y46*%
G04 Gerber Fmt 4.6, Leading zero omitted, Abs format (unit mm)*
G04 Created by KiCad (PCBNEW 8.0.6) date 2025-03-08 18:58:06*
%MOMM*%
%LPD*%
G01*
G04 APERTURE LIST*
%ADD10C,0.050000*%
G04 APERTURE END LIST*
D10*
%TO.C,R3*%
X39140000Y48040000D02*
X39140000Y30700000D01*
X39140000Y30700000D02*
X42140000Y30700000D01*
X42140000Y48040000D02*
X39140000Y48040000D01*
X42140000Y30700000D02*
X42140000Y48040000D01*
%TO.C,R6*%
X51840000Y55660000D02*
X51840000Y38320000D01*
X51840000Y38320000D02*
X54840000Y38320000D01*
X54840000Y55660000D02*
X51840000Y55660000D01*
X54840000Y38320000D02*
X54840000Y55660000D01*
%TO.C,J6*%
X62970000Y31010000D02*
X62970000Y24860000D01*
X62970000Y24860000D02*
X75320000Y24860000D01*
X75320000Y31010000D02*
X62970000Y31010000D01*
X75320000Y24860000D02*
X75320000Y31010000D01*
%TO.C,A1*%
X9060000Y58670000D02*
X9060000Y12450000D01*
X9060000Y58670000D02*
X27340000Y58670000D01*
X27340000Y12450000D02*
X9060000Y12450000D01*
X27340000Y12450000D02*
X27340000Y58670000D01*
%TO.C,REF\u002A\u002A*%
X9800000Y62230000D02*
G75*
G02*
X2900000Y62230000I-3450000J0D01*
G01*
X2900000Y62230000D02*
G75*
G02*
X9800000Y62230000I3450000J0D01*
G01*
%TO.C,J8*%
X62970000Y46250000D02*
X62970000Y40100000D01*
X62970000Y40100000D02*
X75320000Y40100000D01*
X75320000Y46250000D02*
X62970000Y46250000D01*
X75320000Y40100000D02*
X75320000Y46250000D01*
%TO.C,REF\u002A\u002A*%
X9800000Y6350000D02*
G75*
G02*
X2900000Y6350000I-3450000J0D01*
G01*
X2900000Y6350000D02*
G75*
G02*
X9800000Y6350000I3450000J0D01*
G01*
X75840000Y62230000D02*
G75*
G02*
X68940000Y62230000I-3450000J0D01*
G01*
X68940000Y62230000D02*
G75*
G02*
X75840000Y62230000I3450000J0D01*
G01*
%TO.C,J4*%
X51530000Y23390000D02*
X51530000Y11040000D01*
X51530000Y11040000D02*
X57680000Y11040000D01*
X57680000Y23390000D02*
X51530000Y23390000D01*
X57680000Y11040000D02*
X57680000Y23390000D01*
%TO.C,REF\u002A\u002A*%
X75840000Y6350000D02*
G75*
G02*
X68940000Y6350000I-3450000J0D01*
G01*
X68940000Y6350000D02*
G75*
G02*
X75840000Y6350000I3450000J0D01*
G01*
%TO.C,J3*%
X43910000Y23390000D02*
X43910000Y11040000D01*
X43910000Y11040000D02*
X50060000Y11040000D01*
X50060000Y23390000D02*
X43910000Y23390000D01*
X50060000Y11040000D02*
X50060000Y23390000D01*
%TO.C,R1*%
X31170000Y48040000D02*
X31170000Y25620000D01*
X31170000Y25620000D02*
X34870000Y25620000D01*
X34870000Y48040000D02*
X31170000Y48040000D01*
X34870000Y25620000D02*
X34870000Y48040000D01*
%TO.C,J5*%
X62970000Y23390000D02*
X62970000Y17240000D01*
X62970000Y17240000D02*
X75320000Y17240000D01*
X75320000Y23390000D02*
X62970000Y23390000D01*
X75320000Y17240000D02*
X75320000Y23390000D01*
%TO.C,R2*%
X34980000Y50580000D02*
X34980000Y28160000D01*
X34980000Y28160000D02*
X38680000Y28160000D01*
X38680000Y50580000D02*
X34980000Y50580000D01*
X38680000Y28160000D02*
X38680000Y50580000D01*
%TO.C,J7*%
X62970000Y38630000D02*
X62970000Y32480000D01*
X62970000Y32480000D02*
X75320000Y32480000D01*
X75320000Y38630000D02*
X62970000Y38630000D01*
X75320000Y32480000D02*
X75320000Y38630000D01*
%TO.C,R7*%
X55650000Y58200000D02*
X55650000Y40860000D01*
X55650000Y40860000D02*
X58650000Y40860000D01*
X58650000Y58200000D02*
X55650000Y58200000D01*
X58650000Y40860000D02*
X58650000Y58200000D01*
%TO.C,R4*%
X42950000Y50580000D02*
X42950000Y33240000D01*
X42950000Y33240000D02*
X45950000Y33240000D01*
X45950000Y50580000D02*
X42950000Y50580000D01*
X45950000Y33240000D02*
X45950000Y50580000D01*
%TO.C,R5*%
X46760000Y53120000D02*
X46760000Y35780000D01*
X46760000Y35780000D02*
X49760000Y35780000D01*
X49760000Y53120000D02*
X46760000Y53120000D01*
X49760000Y35780000D02*
X49760000Y53120000D01*
%TO.C,J1*%
X28670000Y23390000D02*
X28670000Y11040000D01*
X28670000Y11040000D02*
X34820000Y11040000D01*
X34820000Y23390000D02*
X28670000Y23390000D01*
X34820000Y11040000D02*
X34820000Y23390000D01*
%TO.C,J2*%
X36290000Y23390000D02*
X36290000Y11040000D01*
X36290000Y11040000D02*
X42440000Y11040000D01*
X42440000Y23390000D02*
X36290000Y23390000D01*
X42440000Y11040000D02*
X42440000Y23390000D01*
%TO.C,R8*%
X59460000Y60740000D02*
X59460000Y43400000D01*
X59460000Y43400000D02*
X62460000Y43400000D01*
X62460000Y60740000D02*
X59460000Y60740000D01*
X62460000Y43400000D02*
X62460000Y60740000D01*
%TD*%
M02*
