%TF.GenerationSoftware,KiCad,Pcbnew,8.0.6*%
%TF.CreationDate,2025-03-08T18:58:06-08:00*%
%TF.ProjectId,8CH Thermal Monitor,38434820-5468-4657-926d-616c204d6f6e,rev?*%
%TF.SameCoordinates,PX7df6180PY8670810*%
%TF.FileFunction,AssemblyDrawing,Top*%
%FSLAX46Y46*%
G04 Gerber Fmt 4.6, Leading zero omitted, Abs format (unit mm)*
G04 Created by KiCad (PCBNEW 8.0.6) date 2025-03-08 18:58:06*
%MOMM*%
%LPD*%
G01*
G04 APERTURE LIST*
%ADD10C,0.150000*%
%ADD11C,0.100000*%
G04 APERTURE END LIST*
D10*
X38058152Y38679524D02*
X38724819Y38679524D01*
X37677200Y38441429D02*
X38391485Y38203334D01*
X38391485Y38203334D02*
X38391485Y38822381D01*
X38724819Y39203334D02*
X37724819Y39203334D01*
X38343866Y39298572D02*
X38724819Y39584286D01*
X38058152Y39584286D02*
X38439104Y39203334D01*
X37724819Y39917620D02*
X37724819Y40584286D01*
X37724819Y40584286D02*
X38724819Y40155715D01*
X41094819Y39203334D02*
X40618628Y38870001D01*
X41094819Y38631906D02*
X40094819Y38631906D01*
X40094819Y38631906D02*
X40094819Y39012858D01*
X40094819Y39012858D02*
X40142438Y39108096D01*
X40142438Y39108096D02*
X40190057Y39155715D01*
X40190057Y39155715D02*
X40285295Y39203334D01*
X40285295Y39203334D02*
X40428152Y39203334D01*
X40428152Y39203334D02*
X40523390Y39155715D01*
X40523390Y39155715D02*
X40571009Y39108096D01*
X40571009Y39108096D02*
X40618628Y39012858D01*
X40618628Y39012858D02*
X40618628Y38631906D01*
X40094819Y39536668D02*
X40094819Y40155715D01*
X40094819Y40155715D02*
X40475771Y39822382D01*
X40475771Y39822382D02*
X40475771Y39965239D01*
X40475771Y39965239D02*
X40523390Y40060477D01*
X40523390Y40060477D02*
X40571009Y40108096D01*
X40571009Y40108096D02*
X40666247Y40155715D01*
X40666247Y40155715D02*
X40904342Y40155715D01*
X40904342Y40155715D02*
X40999580Y40108096D01*
X40999580Y40108096D02*
X41047200Y40060477D01*
X41047200Y40060477D02*
X41094819Y39965239D01*
X41094819Y39965239D02*
X41094819Y39679525D01*
X41094819Y39679525D02*
X41047200Y39584287D01*
X41047200Y39584287D02*
X40999580Y39536668D01*
X50758152Y46299524D02*
X51424819Y46299524D01*
X50377200Y46061429D02*
X51091485Y45823334D01*
X51091485Y45823334D02*
X51091485Y46442381D01*
X51424819Y46823334D02*
X50424819Y46823334D01*
X51043866Y46918572D02*
X51424819Y47204286D01*
X50758152Y47204286D02*
X51139104Y46823334D01*
X50424819Y47537620D02*
X50424819Y48204286D01*
X50424819Y48204286D02*
X51424819Y47775715D01*
X53794819Y46823334D02*
X53318628Y46490001D01*
X53794819Y46251906D02*
X52794819Y46251906D01*
X52794819Y46251906D02*
X52794819Y46632858D01*
X52794819Y46632858D02*
X52842438Y46728096D01*
X52842438Y46728096D02*
X52890057Y46775715D01*
X52890057Y46775715D02*
X52985295Y46823334D01*
X52985295Y46823334D02*
X53128152Y46823334D01*
X53128152Y46823334D02*
X53223390Y46775715D01*
X53223390Y46775715D02*
X53271009Y46728096D01*
X53271009Y46728096D02*
X53318628Y46632858D01*
X53318628Y46632858D02*
X53318628Y46251906D01*
X52794819Y47680477D02*
X52794819Y47490001D01*
X52794819Y47490001D02*
X52842438Y47394763D01*
X52842438Y47394763D02*
X52890057Y47347144D01*
X52890057Y47347144D02*
X53032914Y47251906D01*
X53032914Y47251906D02*
X53223390Y47204287D01*
X53223390Y47204287D02*
X53604342Y47204287D01*
X53604342Y47204287D02*
X53699580Y47251906D01*
X53699580Y47251906D02*
X53747200Y47299525D01*
X53747200Y47299525D02*
X53794819Y47394763D01*
X53794819Y47394763D02*
X53794819Y47585239D01*
X53794819Y47585239D02*
X53747200Y47680477D01*
X53747200Y47680477D02*
X53699580Y47728096D01*
X53699580Y47728096D02*
X53604342Y47775715D01*
X53604342Y47775715D02*
X53366247Y47775715D01*
X53366247Y47775715D02*
X53271009Y47728096D01*
X53271009Y47728096D02*
X53223390Y47680477D01*
X53223390Y47680477D02*
X53175771Y47585239D01*
X53175771Y47585239D02*
X53175771Y47394763D01*
X53175771Y47394763D02*
X53223390Y47299525D01*
X53223390Y47299525D02*
X53271009Y47251906D01*
X53271009Y47251906D02*
X53366247Y47204287D01*
X63845475Y24040420D02*
X63797856Y23992800D01*
X63797856Y23992800D02*
X63654999Y23945181D01*
X63654999Y23945181D02*
X63559761Y23945181D01*
X63559761Y23945181D02*
X63416904Y23992800D01*
X63416904Y23992800D02*
X63321666Y24088039D01*
X63321666Y24088039D02*
X63274047Y24183277D01*
X63274047Y24183277D02*
X63226428Y24373753D01*
X63226428Y24373753D02*
X63226428Y24516610D01*
X63226428Y24516610D02*
X63274047Y24707086D01*
X63274047Y24707086D02*
X63321666Y24802324D01*
X63321666Y24802324D02*
X63416904Y24897562D01*
X63416904Y24897562D02*
X63559761Y24945181D01*
X63559761Y24945181D02*
X63654999Y24945181D01*
X63654999Y24945181D02*
X63797856Y24897562D01*
X63797856Y24897562D02*
X63845475Y24849943D01*
X64416904Y23945181D02*
X64321666Y23992800D01*
X64321666Y23992800D02*
X64274047Y24040420D01*
X64274047Y24040420D02*
X64226428Y24135658D01*
X64226428Y24135658D02*
X64226428Y24421372D01*
X64226428Y24421372D02*
X64274047Y24516610D01*
X64274047Y24516610D02*
X64321666Y24564229D01*
X64321666Y24564229D02*
X64416904Y24611848D01*
X64416904Y24611848D02*
X64559761Y24611848D01*
X64559761Y24611848D02*
X64654999Y24564229D01*
X64654999Y24564229D02*
X64702618Y24516610D01*
X64702618Y24516610D02*
X64750237Y24421372D01*
X64750237Y24421372D02*
X64750237Y24135658D01*
X64750237Y24135658D02*
X64702618Y24040420D01*
X64702618Y24040420D02*
X64654999Y23992800D01*
X64654999Y23992800D02*
X64559761Y23945181D01*
X64559761Y23945181D02*
X64416904Y23945181D01*
X65178809Y24611848D02*
X65178809Y23945181D01*
X65178809Y24516610D02*
X65226428Y24564229D01*
X65226428Y24564229D02*
X65321666Y24611848D01*
X65321666Y24611848D02*
X65464523Y24611848D01*
X65464523Y24611848D02*
X65559761Y24564229D01*
X65559761Y24564229D02*
X65607380Y24468991D01*
X65607380Y24468991D02*
X65607380Y23945181D01*
X66083571Y24611848D02*
X66083571Y23945181D01*
X66083571Y24516610D02*
X66131190Y24564229D01*
X66131190Y24564229D02*
X66226428Y24611848D01*
X66226428Y24611848D02*
X66369285Y24611848D01*
X66369285Y24611848D02*
X66464523Y24564229D01*
X66464523Y24564229D02*
X66512142Y24468991D01*
X66512142Y24468991D02*
X66512142Y23945181D01*
X66750238Y23849943D02*
X67512142Y23849943D01*
X67940714Y24945181D02*
X68035952Y24945181D01*
X68035952Y24945181D02*
X68131190Y24897562D01*
X68131190Y24897562D02*
X68178809Y24849943D01*
X68178809Y24849943D02*
X68226428Y24754705D01*
X68226428Y24754705D02*
X68274047Y24564229D01*
X68274047Y24564229D02*
X68274047Y24326134D01*
X68274047Y24326134D02*
X68226428Y24135658D01*
X68226428Y24135658D02*
X68178809Y24040420D01*
X68178809Y24040420D02*
X68131190Y23992800D01*
X68131190Y23992800D02*
X68035952Y23945181D01*
X68035952Y23945181D02*
X67940714Y23945181D01*
X67940714Y23945181D02*
X67845476Y23992800D01*
X67845476Y23992800D02*
X67797857Y24040420D01*
X67797857Y24040420D02*
X67750238Y24135658D01*
X67750238Y24135658D02*
X67702619Y24326134D01*
X67702619Y24326134D02*
X67702619Y24564229D01*
X67702619Y24564229D02*
X67750238Y24754705D01*
X67750238Y24754705D02*
X67797857Y24849943D01*
X67797857Y24849943D02*
X67845476Y24897562D01*
X67845476Y24897562D02*
X67940714Y24945181D01*
X69226428Y23945181D02*
X68655000Y23945181D01*
X68940714Y23945181D02*
X68940714Y24945181D01*
X68940714Y24945181D02*
X68845476Y24802324D01*
X68845476Y24802324D02*
X68750238Y24707086D01*
X68750238Y24707086D02*
X68655000Y24659467D01*
X69559762Y23945181D02*
X70083571Y24611848D01*
X69559762Y24611848D02*
X70083571Y23945181D01*
X70655000Y24945181D02*
X70750238Y24945181D01*
X70750238Y24945181D02*
X70845476Y24897562D01*
X70845476Y24897562D02*
X70893095Y24849943D01*
X70893095Y24849943D02*
X70940714Y24754705D01*
X70940714Y24754705D02*
X70988333Y24564229D01*
X70988333Y24564229D02*
X70988333Y24326134D01*
X70988333Y24326134D02*
X70940714Y24135658D01*
X70940714Y24135658D02*
X70893095Y24040420D01*
X70893095Y24040420D02*
X70845476Y23992800D01*
X70845476Y23992800D02*
X70750238Y23945181D01*
X70750238Y23945181D02*
X70655000Y23945181D01*
X70655000Y23945181D02*
X70559762Y23992800D01*
X70559762Y23992800D02*
X70512143Y24040420D01*
X70512143Y24040420D02*
X70464524Y24135658D01*
X70464524Y24135658D02*
X70416905Y24326134D01*
X70416905Y24326134D02*
X70416905Y24564229D01*
X70416905Y24564229D02*
X70464524Y24754705D01*
X70464524Y24754705D02*
X70512143Y24849943D01*
X70512143Y24849943D02*
X70559762Y24897562D01*
X70559762Y24897562D02*
X70655000Y24945181D01*
X71369286Y24849943D02*
X71416905Y24897562D01*
X71416905Y24897562D02*
X71512143Y24945181D01*
X71512143Y24945181D02*
X71750238Y24945181D01*
X71750238Y24945181D02*
X71845476Y24897562D01*
X71845476Y24897562D02*
X71893095Y24849943D01*
X71893095Y24849943D02*
X71940714Y24754705D01*
X71940714Y24754705D02*
X71940714Y24659467D01*
X71940714Y24659467D02*
X71893095Y24516610D01*
X71893095Y24516610D02*
X71321667Y23945181D01*
X71321667Y23945181D02*
X71940714Y23945181D01*
X72131191Y23849943D02*
X72893095Y23849943D01*
X73131191Y23945181D02*
X73131191Y24945181D01*
X73131191Y24945181D02*
X73512143Y24945181D01*
X73512143Y24945181D02*
X73607381Y24897562D01*
X73607381Y24897562D02*
X73655000Y24849943D01*
X73655000Y24849943D02*
X73702619Y24754705D01*
X73702619Y24754705D02*
X73702619Y24611848D01*
X73702619Y24611848D02*
X73655000Y24516610D01*
X73655000Y24516610D02*
X73607381Y24468991D01*
X73607381Y24468991D02*
X73512143Y24421372D01*
X73512143Y24421372D02*
X73131191Y24421372D01*
X74131191Y23945181D02*
X74131191Y24611848D01*
X74131191Y24945181D02*
X74083572Y24897562D01*
X74083572Y24897562D02*
X74131191Y24849943D01*
X74131191Y24849943D02*
X74178810Y24897562D01*
X74178810Y24897562D02*
X74131191Y24945181D01*
X74131191Y24945181D02*
X74131191Y24849943D01*
X74607381Y24611848D02*
X74607381Y23945181D01*
X74607381Y24516610D02*
X74655000Y24564229D01*
X74655000Y24564229D02*
X74750238Y24611848D01*
X74750238Y24611848D02*
X74893095Y24611848D01*
X74893095Y24611848D02*
X74988333Y24564229D01*
X74988333Y24564229D02*
X75035952Y24468991D01*
X75035952Y24468991D02*
X75035952Y23945181D01*
X66994819Y27606667D02*
X67709104Y27606667D01*
X67709104Y27606667D02*
X67851961Y27559048D01*
X67851961Y27559048D02*
X67947200Y27463810D01*
X67947200Y27463810D02*
X67994819Y27320953D01*
X67994819Y27320953D02*
X67994819Y27225715D01*
X66994819Y28511429D02*
X66994819Y28320953D01*
X66994819Y28320953D02*
X67042438Y28225715D01*
X67042438Y28225715D02*
X67090057Y28178096D01*
X67090057Y28178096D02*
X67232914Y28082858D01*
X67232914Y28082858D02*
X67423390Y28035239D01*
X67423390Y28035239D02*
X67804342Y28035239D01*
X67804342Y28035239D02*
X67899580Y28082858D01*
X67899580Y28082858D02*
X67947200Y28130477D01*
X67947200Y28130477D02*
X67994819Y28225715D01*
X67994819Y28225715D02*
X67994819Y28416191D01*
X67994819Y28416191D02*
X67947200Y28511429D01*
X67947200Y28511429D02*
X67899580Y28559048D01*
X67899580Y28559048D02*
X67804342Y28606667D01*
X67804342Y28606667D02*
X67566247Y28606667D01*
X67566247Y28606667D02*
X67471009Y28559048D01*
X67471009Y28559048D02*
X67423390Y28511429D01*
X67423390Y28511429D02*
X67375771Y28416191D01*
X67375771Y28416191D02*
X67375771Y28225715D01*
X67375771Y28225715D02*
X67423390Y28130477D01*
X67423390Y28130477D02*
X67471009Y28082858D01*
X67471009Y28082858D02*
X67566247Y28035239D01*
X19649104Y28821905D02*
X19649104Y29298095D01*
X19934819Y28726667D02*
X18934819Y29060000D01*
X18934819Y29060000D02*
X19934819Y29393333D01*
X19934819Y29726667D02*
X19268152Y29726667D01*
X19458628Y29726667D02*
X19363390Y29774286D01*
X19363390Y29774286D02*
X19315771Y29821905D01*
X19315771Y29821905D02*
X19268152Y29917143D01*
X19268152Y29917143D02*
X19268152Y30012381D01*
X19934819Y30774286D02*
X18934819Y30774286D01*
X19887200Y30774286D02*
X19934819Y30679048D01*
X19934819Y30679048D02*
X19934819Y30488572D01*
X19934819Y30488572D02*
X19887200Y30393334D01*
X19887200Y30393334D02*
X19839580Y30345715D01*
X19839580Y30345715D02*
X19744342Y30298096D01*
X19744342Y30298096D02*
X19458628Y30298096D01*
X19458628Y30298096D02*
X19363390Y30345715D01*
X19363390Y30345715D02*
X19315771Y30393334D01*
X19315771Y30393334D02*
X19268152Y30488572D01*
X19268152Y30488572D02*
X19268152Y30679048D01*
X19268152Y30679048D02*
X19315771Y30774286D01*
X19268152Y31679048D02*
X19934819Y31679048D01*
X19268152Y31250477D02*
X19791961Y31250477D01*
X19791961Y31250477D02*
X19887200Y31298096D01*
X19887200Y31298096D02*
X19934819Y31393334D01*
X19934819Y31393334D02*
X19934819Y31536191D01*
X19934819Y31536191D02*
X19887200Y31631429D01*
X19887200Y31631429D02*
X19839580Y31679048D01*
X19934819Y32155239D02*
X19268152Y32155239D01*
X18934819Y32155239D02*
X18982438Y32107620D01*
X18982438Y32107620D02*
X19030057Y32155239D01*
X19030057Y32155239D02*
X18982438Y32202858D01*
X18982438Y32202858D02*
X18934819Y32155239D01*
X18934819Y32155239D02*
X19030057Y32155239D01*
X19268152Y32631429D02*
X19934819Y32631429D01*
X19363390Y32631429D02*
X19315771Y32679048D01*
X19315771Y32679048D02*
X19268152Y32774286D01*
X19268152Y32774286D02*
X19268152Y32917143D01*
X19268152Y32917143D02*
X19315771Y33012381D01*
X19315771Y33012381D02*
X19411009Y33060000D01*
X19411009Y33060000D02*
X19934819Y33060000D01*
X19934819Y33679048D02*
X19887200Y33583810D01*
X19887200Y33583810D02*
X19839580Y33536191D01*
X19839580Y33536191D02*
X19744342Y33488572D01*
X19744342Y33488572D02*
X19458628Y33488572D01*
X19458628Y33488572D02*
X19363390Y33536191D01*
X19363390Y33536191D02*
X19315771Y33583810D01*
X19315771Y33583810D02*
X19268152Y33679048D01*
X19268152Y33679048D02*
X19268152Y33821905D01*
X19268152Y33821905D02*
X19315771Y33917143D01*
X19315771Y33917143D02*
X19363390Y33964762D01*
X19363390Y33964762D02*
X19458628Y34012381D01*
X19458628Y34012381D02*
X19744342Y34012381D01*
X19744342Y34012381D02*
X19839580Y33964762D01*
X19839580Y33964762D02*
X19887200Y33917143D01*
X19887200Y33917143D02*
X19934819Y33821905D01*
X19934819Y33821905D02*
X19934819Y33679048D01*
X20030057Y34202857D02*
X20030057Y34964762D01*
X19934819Y35202858D02*
X18934819Y35202858D01*
X18934819Y35202858D02*
X19934819Y35774286D01*
X19934819Y35774286D02*
X18934819Y35774286D01*
X19934819Y36679048D02*
X19411009Y36679048D01*
X19411009Y36679048D02*
X19315771Y36631429D01*
X19315771Y36631429D02*
X19268152Y36536191D01*
X19268152Y36536191D02*
X19268152Y36345715D01*
X19268152Y36345715D02*
X19315771Y36250477D01*
X19887200Y36679048D02*
X19934819Y36583810D01*
X19934819Y36583810D02*
X19934819Y36345715D01*
X19934819Y36345715D02*
X19887200Y36250477D01*
X19887200Y36250477D02*
X19791961Y36202858D01*
X19791961Y36202858D02*
X19696723Y36202858D01*
X19696723Y36202858D02*
X19601485Y36250477D01*
X19601485Y36250477D02*
X19553866Y36345715D01*
X19553866Y36345715D02*
X19553866Y36583810D01*
X19553866Y36583810D02*
X19506247Y36679048D01*
X19268152Y37155239D02*
X19934819Y37155239D01*
X19363390Y37155239D02*
X19315771Y37202858D01*
X19315771Y37202858D02*
X19268152Y37298096D01*
X19268152Y37298096D02*
X19268152Y37440953D01*
X19268152Y37440953D02*
X19315771Y37536191D01*
X19315771Y37536191D02*
X19411009Y37583810D01*
X19411009Y37583810D02*
X19934819Y37583810D01*
X19934819Y38202858D02*
X19887200Y38107620D01*
X19887200Y38107620D02*
X19839580Y38060001D01*
X19839580Y38060001D02*
X19744342Y38012382D01*
X19744342Y38012382D02*
X19458628Y38012382D01*
X19458628Y38012382D02*
X19363390Y38060001D01*
X19363390Y38060001D02*
X19315771Y38107620D01*
X19315771Y38107620D02*
X19268152Y38202858D01*
X19268152Y38202858D02*
X19268152Y38345715D01*
X19268152Y38345715D02*
X19315771Y38440953D01*
X19315771Y38440953D02*
X19363390Y38488572D01*
X19363390Y38488572D02*
X19458628Y38536191D01*
X19458628Y38536191D02*
X19744342Y38536191D01*
X19744342Y38536191D02*
X19839580Y38488572D01*
X19839580Y38488572D02*
X19887200Y38440953D01*
X19887200Y38440953D02*
X19934819Y38345715D01*
X19934819Y38345715D02*
X19934819Y38202858D01*
X20030057Y38726667D02*
X20030057Y39488572D01*
X19268152Y39631430D02*
X19934819Y39869525D01*
X19934819Y39869525D02*
X19268152Y40107620D01*
X18934819Y40393335D02*
X18934819Y41012382D01*
X18934819Y41012382D02*
X19315771Y40679049D01*
X19315771Y40679049D02*
X19315771Y40821906D01*
X19315771Y40821906D02*
X19363390Y40917144D01*
X19363390Y40917144D02*
X19411009Y40964763D01*
X19411009Y40964763D02*
X19506247Y41012382D01*
X19506247Y41012382D02*
X19744342Y41012382D01*
X19744342Y41012382D02*
X19839580Y40964763D01*
X19839580Y40964763D02*
X19887200Y40917144D01*
X19887200Y40917144D02*
X19934819Y40821906D01*
X19934819Y40821906D02*
X19934819Y40536192D01*
X19934819Y40536192D02*
X19887200Y40440954D01*
X19887200Y40440954D02*
X19839580Y40393335D01*
X19839580Y41440954D02*
X19887200Y41488573D01*
X19887200Y41488573D02*
X19934819Y41440954D01*
X19934819Y41440954D02*
X19887200Y41393335D01*
X19887200Y41393335D02*
X19839580Y41440954D01*
X19839580Y41440954D02*
X19934819Y41440954D01*
X19934819Y41821906D02*
X19268152Y42345715D01*
X19268152Y41821906D02*
X19934819Y42345715D01*
X17109104Y34845715D02*
X17109104Y35321905D01*
X17394819Y34750477D02*
X16394819Y35083810D01*
X16394819Y35083810D02*
X17394819Y35417143D01*
X17394819Y36274286D02*
X17394819Y35702858D01*
X17394819Y35988572D02*
X16394819Y35988572D01*
X16394819Y35988572D02*
X16537676Y35893334D01*
X16537676Y35893334D02*
X16632914Y35798096D01*
X16632914Y35798096D02*
X16680533Y35702858D01*
X-2769048Y57575181D02*
X-2769048Y58575181D01*
X-2769048Y58575181D02*
X-2435715Y57860896D01*
X-2435715Y57860896D02*
X-2102382Y58575181D01*
X-2102382Y58575181D02*
X-2102382Y57575181D01*
X-1483334Y57575181D02*
X-1578572Y57622800D01*
X-1578572Y57622800D02*
X-1626191Y57670420D01*
X-1626191Y57670420D02*
X-1673810Y57765658D01*
X-1673810Y57765658D02*
X-1673810Y58051372D01*
X-1673810Y58051372D02*
X-1626191Y58146610D01*
X-1626191Y58146610D02*
X-1578572Y58194229D01*
X-1578572Y58194229D02*
X-1483334Y58241848D01*
X-1483334Y58241848D02*
X-1340477Y58241848D01*
X-1340477Y58241848D02*
X-1245239Y58194229D01*
X-1245239Y58194229D02*
X-1197620Y58146610D01*
X-1197620Y58146610D02*
X-1150001Y58051372D01*
X-1150001Y58051372D02*
X-1150001Y57765658D01*
X-1150001Y57765658D02*
X-1197620Y57670420D01*
X-1197620Y57670420D02*
X-1245239Y57622800D01*
X-1245239Y57622800D02*
X-1340477Y57575181D01*
X-1340477Y57575181D02*
X-1483334Y57575181D01*
X-292858Y58241848D02*
X-292858Y57575181D01*
X-721429Y58241848D02*
X-721429Y57718039D01*
X-721429Y57718039D02*
X-673810Y57622800D01*
X-673810Y57622800D02*
X-578572Y57575181D01*
X-578572Y57575181D02*
X-435715Y57575181D01*
X-435715Y57575181D02*
X-340477Y57622800D01*
X-340477Y57622800D02*
X-292858Y57670420D01*
X183333Y58241848D02*
X183333Y57575181D01*
X183333Y58146610D02*
X230952Y58194229D01*
X230952Y58194229D02*
X326190Y58241848D01*
X326190Y58241848D02*
X469047Y58241848D01*
X469047Y58241848D02*
X564285Y58194229D01*
X564285Y58194229D02*
X611904Y58098991D01*
X611904Y58098991D02*
X611904Y57575181D01*
X945238Y58241848D02*
X1326190Y58241848D01*
X1088095Y58575181D02*
X1088095Y57718039D01*
X1088095Y57718039D02*
X1135714Y57622800D01*
X1135714Y57622800D02*
X1230952Y57575181D01*
X1230952Y57575181D02*
X1326190Y57575181D01*
X1659524Y57575181D02*
X1659524Y58241848D01*
X1659524Y58575181D02*
X1611905Y58527562D01*
X1611905Y58527562D02*
X1659524Y58479943D01*
X1659524Y58479943D02*
X1707143Y58527562D01*
X1707143Y58527562D02*
X1659524Y58575181D01*
X1659524Y58575181D02*
X1659524Y58479943D01*
X2135714Y58241848D02*
X2135714Y57575181D01*
X2135714Y58146610D02*
X2183333Y58194229D01*
X2183333Y58194229D02*
X2278571Y58241848D01*
X2278571Y58241848D02*
X2421428Y58241848D01*
X2421428Y58241848D02*
X2516666Y58194229D01*
X2516666Y58194229D02*
X2564285Y58098991D01*
X2564285Y58098991D02*
X2564285Y57575181D01*
X3469047Y58241848D02*
X3469047Y57432324D01*
X3469047Y57432324D02*
X3421428Y57337086D01*
X3421428Y57337086D02*
X3373809Y57289467D01*
X3373809Y57289467D02*
X3278571Y57241848D01*
X3278571Y57241848D02*
X3135714Y57241848D01*
X3135714Y57241848D02*
X3040476Y57289467D01*
X3469047Y57622800D02*
X3373809Y57575181D01*
X3373809Y57575181D02*
X3183333Y57575181D01*
X3183333Y57575181D02*
X3088095Y57622800D01*
X3088095Y57622800D02*
X3040476Y57670420D01*
X3040476Y57670420D02*
X2992857Y57765658D01*
X2992857Y57765658D02*
X2992857Y58051372D01*
X2992857Y58051372D02*
X3040476Y58146610D01*
X3040476Y58146610D02*
X3088095Y58194229D01*
X3088095Y58194229D02*
X3183333Y58241848D01*
X3183333Y58241848D02*
X3373809Y58241848D01*
X3373809Y58241848D02*
X3469047Y58194229D01*
X3945238Y57575181D02*
X3945238Y58575181D01*
X3945238Y58098991D02*
X4516666Y58098991D01*
X4516666Y57575181D02*
X4516666Y58575181D01*
X5135714Y57575181D02*
X5040476Y57622800D01*
X5040476Y57622800D02*
X4992857Y57670420D01*
X4992857Y57670420D02*
X4945238Y57765658D01*
X4945238Y57765658D02*
X4945238Y58051372D01*
X4945238Y58051372D02*
X4992857Y58146610D01*
X4992857Y58146610D02*
X5040476Y58194229D01*
X5040476Y58194229D02*
X5135714Y58241848D01*
X5135714Y58241848D02*
X5278571Y58241848D01*
X5278571Y58241848D02*
X5373809Y58194229D01*
X5373809Y58194229D02*
X5421428Y58146610D01*
X5421428Y58146610D02*
X5469047Y58051372D01*
X5469047Y58051372D02*
X5469047Y57765658D01*
X5469047Y57765658D02*
X5421428Y57670420D01*
X5421428Y57670420D02*
X5373809Y57622800D01*
X5373809Y57622800D02*
X5278571Y57575181D01*
X5278571Y57575181D02*
X5135714Y57575181D01*
X6040476Y57575181D02*
X5945238Y57622800D01*
X5945238Y57622800D02*
X5897619Y57718039D01*
X5897619Y57718039D02*
X5897619Y58575181D01*
X6802381Y57622800D02*
X6707143Y57575181D01*
X6707143Y57575181D02*
X6516667Y57575181D01*
X6516667Y57575181D02*
X6421429Y57622800D01*
X6421429Y57622800D02*
X6373810Y57718039D01*
X6373810Y57718039D02*
X6373810Y58098991D01*
X6373810Y58098991D02*
X6421429Y58194229D01*
X6421429Y58194229D02*
X6516667Y58241848D01*
X6516667Y58241848D02*
X6707143Y58241848D01*
X6707143Y58241848D02*
X6802381Y58194229D01*
X6802381Y58194229D02*
X6850000Y58098991D01*
X6850000Y58098991D02*
X6850000Y58003753D01*
X6850000Y58003753D02*
X6373810Y57908515D01*
X7040477Y57479943D02*
X7802381Y57479943D01*
X7945239Y58575181D02*
X8564286Y58575181D01*
X8564286Y58575181D02*
X8230953Y58194229D01*
X8230953Y58194229D02*
X8373810Y58194229D01*
X8373810Y58194229D02*
X8469048Y58146610D01*
X8469048Y58146610D02*
X8516667Y58098991D01*
X8516667Y58098991D02*
X8564286Y58003753D01*
X8564286Y58003753D02*
X8564286Y57765658D01*
X8564286Y57765658D02*
X8516667Y57670420D01*
X8516667Y57670420D02*
X8469048Y57622800D01*
X8469048Y57622800D02*
X8373810Y57575181D01*
X8373810Y57575181D02*
X8088096Y57575181D01*
X8088096Y57575181D02*
X7992858Y57622800D01*
X7992858Y57622800D02*
X7945239Y57670420D01*
X8992858Y57670420D02*
X9040477Y57622800D01*
X9040477Y57622800D02*
X8992858Y57575181D01*
X8992858Y57575181D02*
X8945239Y57622800D01*
X8945239Y57622800D02*
X8992858Y57670420D01*
X8992858Y57670420D02*
X8992858Y57575181D01*
X9421429Y58479943D02*
X9469048Y58527562D01*
X9469048Y58527562D02*
X9564286Y58575181D01*
X9564286Y58575181D02*
X9802381Y58575181D01*
X9802381Y58575181D02*
X9897619Y58527562D01*
X9897619Y58527562D02*
X9945238Y58479943D01*
X9945238Y58479943D02*
X9992857Y58384705D01*
X9992857Y58384705D02*
X9992857Y58289467D01*
X9992857Y58289467D02*
X9945238Y58146610D01*
X9945238Y58146610D02*
X9373810Y57575181D01*
X9373810Y57575181D02*
X9992857Y57575181D01*
X10421429Y57575181D02*
X10421429Y58241848D01*
X10421429Y58146610D02*
X10469048Y58194229D01*
X10469048Y58194229D02*
X10564286Y58241848D01*
X10564286Y58241848D02*
X10707143Y58241848D01*
X10707143Y58241848D02*
X10802381Y58194229D01*
X10802381Y58194229D02*
X10850000Y58098991D01*
X10850000Y58098991D02*
X10850000Y57575181D01*
X10850000Y58098991D02*
X10897619Y58194229D01*
X10897619Y58194229D02*
X10992857Y58241848D01*
X10992857Y58241848D02*
X11135714Y58241848D01*
X11135714Y58241848D02*
X11230953Y58194229D01*
X11230953Y58194229D02*
X11278572Y58098991D01*
X11278572Y58098991D02*
X11278572Y57575181D01*
X11754762Y57575181D02*
X11754762Y58241848D01*
X11754762Y58146610D02*
X11802381Y58194229D01*
X11802381Y58194229D02*
X11897619Y58241848D01*
X11897619Y58241848D02*
X12040476Y58241848D01*
X12040476Y58241848D02*
X12135714Y58194229D01*
X12135714Y58194229D02*
X12183333Y58098991D01*
X12183333Y58098991D02*
X12183333Y57575181D01*
X12183333Y58098991D02*
X12230952Y58194229D01*
X12230952Y58194229D02*
X12326190Y58241848D01*
X12326190Y58241848D02*
X12469047Y58241848D01*
X12469047Y58241848D02*
X12564286Y58194229D01*
X12564286Y58194229D02*
X12611905Y58098991D01*
X12611905Y58098991D02*
X12611905Y57575181D01*
X12850000Y57479943D02*
X13611904Y57479943D01*
X13850000Y57575181D02*
X13850000Y58575181D01*
X13850000Y58575181D02*
X14183333Y57860896D01*
X14183333Y57860896D02*
X14516666Y58575181D01*
X14516666Y58575181D02*
X14516666Y57575181D01*
X14897619Y58575181D02*
X15516666Y58575181D01*
X15516666Y58575181D02*
X15183333Y58194229D01*
X15183333Y58194229D02*
X15326190Y58194229D01*
X15326190Y58194229D02*
X15421428Y58146610D01*
X15421428Y58146610D02*
X15469047Y58098991D01*
X15469047Y58098991D02*
X15516666Y58003753D01*
X15516666Y58003753D02*
X15516666Y57765658D01*
X15516666Y57765658D02*
X15469047Y57670420D01*
X15469047Y57670420D02*
X15421428Y57622800D01*
X15421428Y57622800D02*
X15326190Y57575181D01*
X15326190Y57575181D02*
X15040476Y57575181D01*
X15040476Y57575181D02*
X14945238Y57622800D01*
X14945238Y57622800D02*
X14897619Y57670420D01*
X5016666Y61775181D02*
X4683333Y62251372D01*
X4445238Y61775181D02*
X4445238Y62775181D01*
X4445238Y62775181D02*
X4826190Y62775181D01*
X4826190Y62775181D02*
X4921428Y62727562D01*
X4921428Y62727562D02*
X4969047Y62679943D01*
X4969047Y62679943D02*
X5016666Y62584705D01*
X5016666Y62584705D02*
X5016666Y62441848D01*
X5016666Y62441848D02*
X4969047Y62346610D01*
X4969047Y62346610D02*
X4921428Y62298991D01*
X4921428Y62298991D02*
X4826190Y62251372D01*
X4826190Y62251372D02*
X4445238Y62251372D01*
X5445238Y62298991D02*
X5778571Y62298991D01*
X5921428Y61775181D02*
X5445238Y61775181D01*
X5445238Y61775181D02*
X5445238Y62775181D01*
X5445238Y62775181D02*
X5921428Y62775181D01*
X6683333Y62298991D02*
X6350000Y62298991D01*
X6350000Y61775181D02*
X6350000Y62775181D01*
X6350000Y62775181D02*
X6826190Y62775181D01*
X7350000Y62775181D02*
X7350000Y62537086D01*
X7111905Y62632324D02*
X7350000Y62537086D01*
X7350000Y62537086D02*
X7588095Y62632324D01*
X7207143Y62346610D02*
X7350000Y62537086D01*
X7350000Y62537086D02*
X7492857Y62346610D01*
X8111905Y62775181D02*
X8111905Y62537086D01*
X7873810Y62632324D02*
X8111905Y62537086D01*
X8111905Y62537086D02*
X8350000Y62632324D01*
X7969048Y62346610D02*
X8111905Y62537086D01*
X8111905Y62537086D02*
X8254762Y62346610D01*
X63845475Y39280420D02*
X63797856Y39232800D01*
X63797856Y39232800D02*
X63654999Y39185181D01*
X63654999Y39185181D02*
X63559761Y39185181D01*
X63559761Y39185181D02*
X63416904Y39232800D01*
X63416904Y39232800D02*
X63321666Y39328039D01*
X63321666Y39328039D02*
X63274047Y39423277D01*
X63274047Y39423277D02*
X63226428Y39613753D01*
X63226428Y39613753D02*
X63226428Y39756610D01*
X63226428Y39756610D02*
X63274047Y39947086D01*
X63274047Y39947086D02*
X63321666Y40042324D01*
X63321666Y40042324D02*
X63416904Y40137562D01*
X63416904Y40137562D02*
X63559761Y40185181D01*
X63559761Y40185181D02*
X63654999Y40185181D01*
X63654999Y40185181D02*
X63797856Y40137562D01*
X63797856Y40137562D02*
X63845475Y40089943D01*
X64416904Y39185181D02*
X64321666Y39232800D01*
X64321666Y39232800D02*
X64274047Y39280420D01*
X64274047Y39280420D02*
X64226428Y39375658D01*
X64226428Y39375658D02*
X64226428Y39661372D01*
X64226428Y39661372D02*
X64274047Y39756610D01*
X64274047Y39756610D02*
X64321666Y39804229D01*
X64321666Y39804229D02*
X64416904Y39851848D01*
X64416904Y39851848D02*
X64559761Y39851848D01*
X64559761Y39851848D02*
X64654999Y39804229D01*
X64654999Y39804229D02*
X64702618Y39756610D01*
X64702618Y39756610D02*
X64750237Y39661372D01*
X64750237Y39661372D02*
X64750237Y39375658D01*
X64750237Y39375658D02*
X64702618Y39280420D01*
X64702618Y39280420D02*
X64654999Y39232800D01*
X64654999Y39232800D02*
X64559761Y39185181D01*
X64559761Y39185181D02*
X64416904Y39185181D01*
X65178809Y39851848D02*
X65178809Y39185181D01*
X65178809Y39756610D02*
X65226428Y39804229D01*
X65226428Y39804229D02*
X65321666Y39851848D01*
X65321666Y39851848D02*
X65464523Y39851848D01*
X65464523Y39851848D02*
X65559761Y39804229D01*
X65559761Y39804229D02*
X65607380Y39708991D01*
X65607380Y39708991D02*
X65607380Y39185181D01*
X66083571Y39851848D02*
X66083571Y39185181D01*
X66083571Y39756610D02*
X66131190Y39804229D01*
X66131190Y39804229D02*
X66226428Y39851848D01*
X66226428Y39851848D02*
X66369285Y39851848D01*
X66369285Y39851848D02*
X66464523Y39804229D01*
X66464523Y39804229D02*
X66512142Y39708991D01*
X66512142Y39708991D02*
X66512142Y39185181D01*
X66750238Y39089943D02*
X67512142Y39089943D01*
X67940714Y40185181D02*
X68035952Y40185181D01*
X68035952Y40185181D02*
X68131190Y40137562D01*
X68131190Y40137562D02*
X68178809Y40089943D01*
X68178809Y40089943D02*
X68226428Y39994705D01*
X68226428Y39994705D02*
X68274047Y39804229D01*
X68274047Y39804229D02*
X68274047Y39566134D01*
X68274047Y39566134D02*
X68226428Y39375658D01*
X68226428Y39375658D02*
X68178809Y39280420D01*
X68178809Y39280420D02*
X68131190Y39232800D01*
X68131190Y39232800D02*
X68035952Y39185181D01*
X68035952Y39185181D02*
X67940714Y39185181D01*
X67940714Y39185181D02*
X67845476Y39232800D01*
X67845476Y39232800D02*
X67797857Y39280420D01*
X67797857Y39280420D02*
X67750238Y39375658D01*
X67750238Y39375658D02*
X67702619Y39566134D01*
X67702619Y39566134D02*
X67702619Y39804229D01*
X67702619Y39804229D02*
X67750238Y39994705D01*
X67750238Y39994705D02*
X67797857Y40089943D01*
X67797857Y40089943D02*
X67845476Y40137562D01*
X67845476Y40137562D02*
X67940714Y40185181D01*
X69226428Y39185181D02*
X68655000Y39185181D01*
X68940714Y39185181D02*
X68940714Y40185181D01*
X68940714Y40185181D02*
X68845476Y40042324D01*
X68845476Y40042324D02*
X68750238Y39947086D01*
X68750238Y39947086D02*
X68655000Y39899467D01*
X69559762Y39185181D02*
X70083571Y39851848D01*
X69559762Y39851848D02*
X70083571Y39185181D01*
X70655000Y40185181D02*
X70750238Y40185181D01*
X70750238Y40185181D02*
X70845476Y40137562D01*
X70845476Y40137562D02*
X70893095Y40089943D01*
X70893095Y40089943D02*
X70940714Y39994705D01*
X70940714Y39994705D02*
X70988333Y39804229D01*
X70988333Y39804229D02*
X70988333Y39566134D01*
X70988333Y39566134D02*
X70940714Y39375658D01*
X70940714Y39375658D02*
X70893095Y39280420D01*
X70893095Y39280420D02*
X70845476Y39232800D01*
X70845476Y39232800D02*
X70750238Y39185181D01*
X70750238Y39185181D02*
X70655000Y39185181D01*
X70655000Y39185181D02*
X70559762Y39232800D01*
X70559762Y39232800D02*
X70512143Y39280420D01*
X70512143Y39280420D02*
X70464524Y39375658D01*
X70464524Y39375658D02*
X70416905Y39566134D01*
X70416905Y39566134D02*
X70416905Y39804229D01*
X70416905Y39804229D02*
X70464524Y39994705D01*
X70464524Y39994705D02*
X70512143Y40089943D01*
X70512143Y40089943D02*
X70559762Y40137562D01*
X70559762Y40137562D02*
X70655000Y40185181D01*
X71369286Y40089943D02*
X71416905Y40137562D01*
X71416905Y40137562D02*
X71512143Y40185181D01*
X71512143Y40185181D02*
X71750238Y40185181D01*
X71750238Y40185181D02*
X71845476Y40137562D01*
X71845476Y40137562D02*
X71893095Y40089943D01*
X71893095Y40089943D02*
X71940714Y39994705D01*
X71940714Y39994705D02*
X71940714Y39899467D01*
X71940714Y39899467D02*
X71893095Y39756610D01*
X71893095Y39756610D02*
X71321667Y39185181D01*
X71321667Y39185181D02*
X71940714Y39185181D01*
X72131191Y39089943D02*
X72893095Y39089943D01*
X73131191Y39185181D02*
X73131191Y40185181D01*
X73131191Y40185181D02*
X73512143Y40185181D01*
X73512143Y40185181D02*
X73607381Y40137562D01*
X73607381Y40137562D02*
X73655000Y40089943D01*
X73655000Y40089943D02*
X73702619Y39994705D01*
X73702619Y39994705D02*
X73702619Y39851848D01*
X73702619Y39851848D02*
X73655000Y39756610D01*
X73655000Y39756610D02*
X73607381Y39708991D01*
X73607381Y39708991D02*
X73512143Y39661372D01*
X73512143Y39661372D02*
X73131191Y39661372D01*
X74131191Y39185181D02*
X74131191Y39851848D01*
X74131191Y40185181D02*
X74083572Y40137562D01*
X74083572Y40137562D02*
X74131191Y40089943D01*
X74131191Y40089943D02*
X74178810Y40137562D01*
X74178810Y40137562D02*
X74131191Y40185181D01*
X74131191Y40185181D02*
X74131191Y40089943D01*
X74607381Y39851848D02*
X74607381Y39185181D01*
X74607381Y39756610D02*
X74655000Y39804229D01*
X74655000Y39804229D02*
X74750238Y39851848D01*
X74750238Y39851848D02*
X74893095Y39851848D01*
X74893095Y39851848D02*
X74988333Y39804229D01*
X74988333Y39804229D02*
X75035952Y39708991D01*
X75035952Y39708991D02*
X75035952Y39185181D01*
X66994819Y42846667D02*
X67709104Y42846667D01*
X67709104Y42846667D02*
X67851961Y42799048D01*
X67851961Y42799048D02*
X67947200Y42703810D01*
X67947200Y42703810D02*
X67994819Y42560953D01*
X67994819Y42560953D02*
X67994819Y42465715D01*
X67423390Y43465715D02*
X67375771Y43370477D01*
X67375771Y43370477D02*
X67328152Y43322858D01*
X67328152Y43322858D02*
X67232914Y43275239D01*
X67232914Y43275239D02*
X67185295Y43275239D01*
X67185295Y43275239D02*
X67090057Y43322858D01*
X67090057Y43322858D02*
X67042438Y43370477D01*
X67042438Y43370477D02*
X66994819Y43465715D01*
X66994819Y43465715D02*
X66994819Y43656191D01*
X66994819Y43656191D02*
X67042438Y43751429D01*
X67042438Y43751429D02*
X67090057Y43799048D01*
X67090057Y43799048D02*
X67185295Y43846667D01*
X67185295Y43846667D02*
X67232914Y43846667D01*
X67232914Y43846667D02*
X67328152Y43799048D01*
X67328152Y43799048D02*
X67375771Y43751429D01*
X67375771Y43751429D02*
X67423390Y43656191D01*
X67423390Y43656191D02*
X67423390Y43465715D01*
X67423390Y43465715D02*
X67471009Y43370477D01*
X67471009Y43370477D02*
X67518628Y43322858D01*
X67518628Y43322858D02*
X67613866Y43275239D01*
X67613866Y43275239D02*
X67804342Y43275239D01*
X67804342Y43275239D02*
X67899580Y43322858D01*
X67899580Y43322858D02*
X67947200Y43370477D01*
X67947200Y43370477D02*
X67994819Y43465715D01*
X67994819Y43465715D02*
X67994819Y43656191D01*
X67994819Y43656191D02*
X67947200Y43751429D01*
X67947200Y43751429D02*
X67899580Y43799048D01*
X67899580Y43799048D02*
X67804342Y43846667D01*
X67804342Y43846667D02*
X67613866Y43846667D01*
X67613866Y43846667D02*
X67518628Y43799048D01*
X67518628Y43799048D02*
X67471009Y43751429D01*
X67471009Y43751429D02*
X67423390Y43656191D01*
X-2769048Y1695181D02*
X-2769048Y2695181D01*
X-2769048Y2695181D02*
X-2435715Y1980896D01*
X-2435715Y1980896D02*
X-2102382Y2695181D01*
X-2102382Y2695181D02*
X-2102382Y1695181D01*
X-1483334Y1695181D02*
X-1578572Y1742800D01*
X-1578572Y1742800D02*
X-1626191Y1790420D01*
X-1626191Y1790420D02*
X-1673810Y1885658D01*
X-1673810Y1885658D02*
X-1673810Y2171372D01*
X-1673810Y2171372D02*
X-1626191Y2266610D01*
X-1626191Y2266610D02*
X-1578572Y2314229D01*
X-1578572Y2314229D02*
X-1483334Y2361848D01*
X-1483334Y2361848D02*
X-1340477Y2361848D01*
X-1340477Y2361848D02*
X-1245239Y2314229D01*
X-1245239Y2314229D02*
X-1197620Y2266610D01*
X-1197620Y2266610D02*
X-1150001Y2171372D01*
X-1150001Y2171372D02*
X-1150001Y1885658D01*
X-1150001Y1885658D02*
X-1197620Y1790420D01*
X-1197620Y1790420D02*
X-1245239Y1742800D01*
X-1245239Y1742800D02*
X-1340477Y1695181D01*
X-1340477Y1695181D02*
X-1483334Y1695181D01*
X-292858Y2361848D02*
X-292858Y1695181D01*
X-721429Y2361848D02*
X-721429Y1838039D01*
X-721429Y1838039D02*
X-673810Y1742800D01*
X-673810Y1742800D02*
X-578572Y1695181D01*
X-578572Y1695181D02*
X-435715Y1695181D01*
X-435715Y1695181D02*
X-340477Y1742800D01*
X-340477Y1742800D02*
X-292858Y1790420D01*
X183333Y2361848D02*
X183333Y1695181D01*
X183333Y2266610D02*
X230952Y2314229D01*
X230952Y2314229D02*
X326190Y2361848D01*
X326190Y2361848D02*
X469047Y2361848D01*
X469047Y2361848D02*
X564285Y2314229D01*
X564285Y2314229D02*
X611904Y2218991D01*
X611904Y2218991D02*
X611904Y1695181D01*
X945238Y2361848D02*
X1326190Y2361848D01*
X1088095Y2695181D02*
X1088095Y1838039D01*
X1088095Y1838039D02*
X1135714Y1742800D01*
X1135714Y1742800D02*
X1230952Y1695181D01*
X1230952Y1695181D02*
X1326190Y1695181D01*
X1659524Y1695181D02*
X1659524Y2361848D01*
X1659524Y2695181D02*
X1611905Y2647562D01*
X1611905Y2647562D02*
X1659524Y2599943D01*
X1659524Y2599943D02*
X1707143Y2647562D01*
X1707143Y2647562D02*
X1659524Y2695181D01*
X1659524Y2695181D02*
X1659524Y2599943D01*
X2135714Y2361848D02*
X2135714Y1695181D01*
X2135714Y2266610D02*
X2183333Y2314229D01*
X2183333Y2314229D02*
X2278571Y2361848D01*
X2278571Y2361848D02*
X2421428Y2361848D01*
X2421428Y2361848D02*
X2516666Y2314229D01*
X2516666Y2314229D02*
X2564285Y2218991D01*
X2564285Y2218991D02*
X2564285Y1695181D01*
X3469047Y2361848D02*
X3469047Y1552324D01*
X3469047Y1552324D02*
X3421428Y1457086D01*
X3421428Y1457086D02*
X3373809Y1409467D01*
X3373809Y1409467D02*
X3278571Y1361848D01*
X3278571Y1361848D02*
X3135714Y1361848D01*
X3135714Y1361848D02*
X3040476Y1409467D01*
X3469047Y1742800D02*
X3373809Y1695181D01*
X3373809Y1695181D02*
X3183333Y1695181D01*
X3183333Y1695181D02*
X3088095Y1742800D01*
X3088095Y1742800D02*
X3040476Y1790420D01*
X3040476Y1790420D02*
X2992857Y1885658D01*
X2992857Y1885658D02*
X2992857Y2171372D01*
X2992857Y2171372D02*
X3040476Y2266610D01*
X3040476Y2266610D02*
X3088095Y2314229D01*
X3088095Y2314229D02*
X3183333Y2361848D01*
X3183333Y2361848D02*
X3373809Y2361848D01*
X3373809Y2361848D02*
X3469047Y2314229D01*
X3945238Y1695181D02*
X3945238Y2695181D01*
X3945238Y2218991D02*
X4516666Y2218991D01*
X4516666Y1695181D02*
X4516666Y2695181D01*
X5135714Y1695181D02*
X5040476Y1742800D01*
X5040476Y1742800D02*
X4992857Y1790420D01*
X4992857Y1790420D02*
X4945238Y1885658D01*
X4945238Y1885658D02*
X4945238Y2171372D01*
X4945238Y2171372D02*
X4992857Y2266610D01*
X4992857Y2266610D02*
X5040476Y2314229D01*
X5040476Y2314229D02*
X5135714Y2361848D01*
X5135714Y2361848D02*
X5278571Y2361848D01*
X5278571Y2361848D02*
X5373809Y2314229D01*
X5373809Y2314229D02*
X5421428Y2266610D01*
X5421428Y2266610D02*
X5469047Y2171372D01*
X5469047Y2171372D02*
X5469047Y1885658D01*
X5469047Y1885658D02*
X5421428Y1790420D01*
X5421428Y1790420D02*
X5373809Y1742800D01*
X5373809Y1742800D02*
X5278571Y1695181D01*
X5278571Y1695181D02*
X5135714Y1695181D01*
X6040476Y1695181D02*
X5945238Y1742800D01*
X5945238Y1742800D02*
X5897619Y1838039D01*
X5897619Y1838039D02*
X5897619Y2695181D01*
X6802381Y1742800D02*
X6707143Y1695181D01*
X6707143Y1695181D02*
X6516667Y1695181D01*
X6516667Y1695181D02*
X6421429Y1742800D01*
X6421429Y1742800D02*
X6373810Y1838039D01*
X6373810Y1838039D02*
X6373810Y2218991D01*
X6373810Y2218991D02*
X6421429Y2314229D01*
X6421429Y2314229D02*
X6516667Y2361848D01*
X6516667Y2361848D02*
X6707143Y2361848D01*
X6707143Y2361848D02*
X6802381Y2314229D01*
X6802381Y2314229D02*
X6850000Y2218991D01*
X6850000Y2218991D02*
X6850000Y2123753D01*
X6850000Y2123753D02*
X6373810Y2028515D01*
X7040477Y1599943D02*
X7802381Y1599943D01*
X7945239Y2695181D02*
X8564286Y2695181D01*
X8564286Y2695181D02*
X8230953Y2314229D01*
X8230953Y2314229D02*
X8373810Y2314229D01*
X8373810Y2314229D02*
X8469048Y2266610D01*
X8469048Y2266610D02*
X8516667Y2218991D01*
X8516667Y2218991D02*
X8564286Y2123753D01*
X8564286Y2123753D02*
X8564286Y1885658D01*
X8564286Y1885658D02*
X8516667Y1790420D01*
X8516667Y1790420D02*
X8469048Y1742800D01*
X8469048Y1742800D02*
X8373810Y1695181D01*
X8373810Y1695181D02*
X8088096Y1695181D01*
X8088096Y1695181D02*
X7992858Y1742800D01*
X7992858Y1742800D02*
X7945239Y1790420D01*
X8992858Y1790420D02*
X9040477Y1742800D01*
X9040477Y1742800D02*
X8992858Y1695181D01*
X8992858Y1695181D02*
X8945239Y1742800D01*
X8945239Y1742800D02*
X8992858Y1790420D01*
X8992858Y1790420D02*
X8992858Y1695181D01*
X9421429Y2599943D02*
X9469048Y2647562D01*
X9469048Y2647562D02*
X9564286Y2695181D01*
X9564286Y2695181D02*
X9802381Y2695181D01*
X9802381Y2695181D02*
X9897619Y2647562D01*
X9897619Y2647562D02*
X9945238Y2599943D01*
X9945238Y2599943D02*
X9992857Y2504705D01*
X9992857Y2504705D02*
X9992857Y2409467D01*
X9992857Y2409467D02*
X9945238Y2266610D01*
X9945238Y2266610D02*
X9373810Y1695181D01*
X9373810Y1695181D02*
X9992857Y1695181D01*
X10421429Y1695181D02*
X10421429Y2361848D01*
X10421429Y2266610D02*
X10469048Y2314229D01*
X10469048Y2314229D02*
X10564286Y2361848D01*
X10564286Y2361848D02*
X10707143Y2361848D01*
X10707143Y2361848D02*
X10802381Y2314229D01*
X10802381Y2314229D02*
X10850000Y2218991D01*
X10850000Y2218991D02*
X10850000Y1695181D01*
X10850000Y2218991D02*
X10897619Y2314229D01*
X10897619Y2314229D02*
X10992857Y2361848D01*
X10992857Y2361848D02*
X11135714Y2361848D01*
X11135714Y2361848D02*
X11230953Y2314229D01*
X11230953Y2314229D02*
X11278572Y2218991D01*
X11278572Y2218991D02*
X11278572Y1695181D01*
X11754762Y1695181D02*
X11754762Y2361848D01*
X11754762Y2266610D02*
X11802381Y2314229D01*
X11802381Y2314229D02*
X11897619Y2361848D01*
X11897619Y2361848D02*
X12040476Y2361848D01*
X12040476Y2361848D02*
X12135714Y2314229D01*
X12135714Y2314229D02*
X12183333Y2218991D01*
X12183333Y2218991D02*
X12183333Y1695181D01*
X12183333Y2218991D02*
X12230952Y2314229D01*
X12230952Y2314229D02*
X12326190Y2361848D01*
X12326190Y2361848D02*
X12469047Y2361848D01*
X12469047Y2361848D02*
X12564286Y2314229D01*
X12564286Y2314229D02*
X12611905Y2218991D01*
X12611905Y2218991D02*
X12611905Y1695181D01*
X12850000Y1599943D02*
X13611904Y1599943D01*
X13850000Y1695181D02*
X13850000Y2695181D01*
X13850000Y2695181D02*
X14183333Y1980896D01*
X14183333Y1980896D02*
X14516666Y2695181D01*
X14516666Y2695181D02*
X14516666Y1695181D01*
X14897619Y2695181D02*
X15516666Y2695181D01*
X15516666Y2695181D02*
X15183333Y2314229D01*
X15183333Y2314229D02*
X15326190Y2314229D01*
X15326190Y2314229D02*
X15421428Y2266610D01*
X15421428Y2266610D02*
X15469047Y2218991D01*
X15469047Y2218991D02*
X15516666Y2123753D01*
X15516666Y2123753D02*
X15516666Y1885658D01*
X15516666Y1885658D02*
X15469047Y1790420D01*
X15469047Y1790420D02*
X15421428Y1742800D01*
X15421428Y1742800D02*
X15326190Y1695181D01*
X15326190Y1695181D02*
X15040476Y1695181D01*
X15040476Y1695181D02*
X14945238Y1742800D01*
X14945238Y1742800D02*
X14897619Y1790420D01*
X5016666Y5895181D02*
X4683333Y6371372D01*
X4445238Y5895181D02*
X4445238Y6895181D01*
X4445238Y6895181D02*
X4826190Y6895181D01*
X4826190Y6895181D02*
X4921428Y6847562D01*
X4921428Y6847562D02*
X4969047Y6799943D01*
X4969047Y6799943D02*
X5016666Y6704705D01*
X5016666Y6704705D02*
X5016666Y6561848D01*
X5016666Y6561848D02*
X4969047Y6466610D01*
X4969047Y6466610D02*
X4921428Y6418991D01*
X4921428Y6418991D02*
X4826190Y6371372D01*
X4826190Y6371372D02*
X4445238Y6371372D01*
X5445238Y6418991D02*
X5778571Y6418991D01*
X5921428Y5895181D02*
X5445238Y5895181D01*
X5445238Y5895181D02*
X5445238Y6895181D01*
X5445238Y6895181D02*
X5921428Y6895181D01*
X6683333Y6418991D02*
X6350000Y6418991D01*
X6350000Y5895181D02*
X6350000Y6895181D01*
X6350000Y6895181D02*
X6826190Y6895181D01*
X7350000Y6895181D02*
X7350000Y6657086D01*
X7111905Y6752324D02*
X7350000Y6657086D01*
X7350000Y6657086D02*
X7588095Y6752324D01*
X7207143Y6466610D02*
X7350000Y6657086D01*
X7350000Y6657086D02*
X7492857Y6466610D01*
X8111905Y6895181D02*
X8111905Y6657086D01*
X7873810Y6752324D02*
X8111905Y6657086D01*
X8111905Y6657086D02*
X8350000Y6752324D01*
X7969048Y6466610D02*
X8111905Y6657086D01*
X8111905Y6657086D02*
X8254762Y6466610D01*
X63270952Y57575181D02*
X63270952Y58575181D01*
X63270952Y58575181D02*
X63604285Y57860896D01*
X63604285Y57860896D02*
X63937618Y58575181D01*
X63937618Y58575181D02*
X63937618Y57575181D01*
X64556666Y57575181D02*
X64461428Y57622800D01*
X64461428Y57622800D02*
X64413809Y57670420D01*
X64413809Y57670420D02*
X64366190Y57765658D01*
X64366190Y57765658D02*
X64366190Y58051372D01*
X64366190Y58051372D02*
X64413809Y58146610D01*
X64413809Y58146610D02*
X64461428Y58194229D01*
X64461428Y58194229D02*
X64556666Y58241848D01*
X64556666Y58241848D02*
X64699523Y58241848D01*
X64699523Y58241848D02*
X64794761Y58194229D01*
X64794761Y58194229D02*
X64842380Y58146610D01*
X64842380Y58146610D02*
X64889999Y58051372D01*
X64889999Y58051372D02*
X64889999Y57765658D01*
X64889999Y57765658D02*
X64842380Y57670420D01*
X64842380Y57670420D02*
X64794761Y57622800D01*
X64794761Y57622800D02*
X64699523Y57575181D01*
X64699523Y57575181D02*
X64556666Y57575181D01*
X65747142Y58241848D02*
X65747142Y57575181D01*
X65318571Y58241848D02*
X65318571Y57718039D01*
X65318571Y57718039D02*
X65366190Y57622800D01*
X65366190Y57622800D02*
X65461428Y57575181D01*
X65461428Y57575181D02*
X65604285Y57575181D01*
X65604285Y57575181D02*
X65699523Y57622800D01*
X65699523Y57622800D02*
X65747142Y57670420D01*
X66223333Y58241848D02*
X66223333Y57575181D01*
X66223333Y58146610D02*
X66270952Y58194229D01*
X66270952Y58194229D02*
X66366190Y58241848D01*
X66366190Y58241848D02*
X66509047Y58241848D01*
X66509047Y58241848D02*
X66604285Y58194229D01*
X66604285Y58194229D02*
X66651904Y58098991D01*
X66651904Y58098991D02*
X66651904Y57575181D01*
X66985238Y58241848D02*
X67366190Y58241848D01*
X67128095Y58575181D02*
X67128095Y57718039D01*
X67128095Y57718039D02*
X67175714Y57622800D01*
X67175714Y57622800D02*
X67270952Y57575181D01*
X67270952Y57575181D02*
X67366190Y57575181D01*
X67699524Y57575181D02*
X67699524Y58241848D01*
X67699524Y58575181D02*
X67651905Y58527562D01*
X67651905Y58527562D02*
X67699524Y58479943D01*
X67699524Y58479943D02*
X67747143Y58527562D01*
X67747143Y58527562D02*
X67699524Y58575181D01*
X67699524Y58575181D02*
X67699524Y58479943D01*
X68175714Y58241848D02*
X68175714Y57575181D01*
X68175714Y58146610D02*
X68223333Y58194229D01*
X68223333Y58194229D02*
X68318571Y58241848D01*
X68318571Y58241848D02*
X68461428Y58241848D01*
X68461428Y58241848D02*
X68556666Y58194229D01*
X68556666Y58194229D02*
X68604285Y58098991D01*
X68604285Y58098991D02*
X68604285Y57575181D01*
X69509047Y58241848D02*
X69509047Y57432324D01*
X69509047Y57432324D02*
X69461428Y57337086D01*
X69461428Y57337086D02*
X69413809Y57289467D01*
X69413809Y57289467D02*
X69318571Y57241848D01*
X69318571Y57241848D02*
X69175714Y57241848D01*
X69175714Y57241848D02*
X69080476Y57289467D01*
X69509047Y57622800D02*
X69413809Y57575181D01*
X69413809Y57575181D02*
X69223333Y57575181D01*
X69223333Y57575181D02*
X69128095Y57622800D01*
X69128095Y57622800D02*
X69080476Y57670420D01*
X69080476Y57670420D02*
X69032857Y57765658D01*
X69032857Y57765658D02*
X69032857Y58051372D01*
X69032857Y58051372D02*
X69080476Y58146610D01*
X69080476Y58146610D02*
X69128095Y58194229D01*
X69128095Y58194229D02*
X69223333Y58241848D01*
X69223333Y58241848D02*
X69413809Y58241848D01*
X69413809Y58241848D02*
X69509047Y58194229D01*
X69985238Y57575181D02*
X69985238Y58575181D01*
X69985238Y58098991D02*
X70556666Y58098991D01*
X70556666Y57575181D02*
X70556666Y58575181D01*
X71175714Y57575181D02*
X71080476Y57622800D01*
X71080476Y57622800D02*
X71032857Y57670420D01*
X71032857Y57670420D02*
X70985238Y57765658D01*
X70985238Y57765658D02*
X70985238Y58051372D01*
X70985238Y58051372D02*
X71032857Y58146610D01*
X71032857Y58146610D02*
X71080476Y58194229D01*
X71080476Y58194229D02*
X71175714Y58241848D01*
X71175714Y58241848D02*
X71318571Y58241848D01*
X71318571Y58241848D02*
X71413809Y58194229D01*
X71413809Y58194229D02*
X71461428Y58146610D01*
X71461428Y58146610D02*
X71509047Y58051372D01*
X71509047Y58051372D02*
X71509047Y57765658D01*
X71509047Y57765658D02*
X71461428Y57670420D01*
X71461428Y57670420D02*
X71413809Y57622800D01*
X71413809Y57622800D02*
X71318571Y57575181D01*
X71318571Y57575181D02*
X71175714Y57575181D01*
X72080476Y57575181D02*
X71985238Y57622800D01*
X71985238Y57622800D02*
X71937619Y57718039D01*
X71937619Y57718039D02*
X71937619Y58575181D01*
X72842381Y57622800D02*
X72747143Y57575181D01*
X72747143Y57575181D02*
X72556667Y57575181D01*
X72556667Y57575181D02*
X72461429Y57622800D01*
X72461429Y57622800D02*
X72413810Y57718039D01*
X72413810Y57718039D02*
X72413810Y58098991D01*
X72413810Y58098991D02*
X72461429Y58194229D01*
X72461429Y58194229D02*
X72556667Y58241848D01*
X72556667Y58241848D02*
X72747143Y58241848D01*
X72747143Y58241848D02*
X72842381Y58194229D01*
X72842381Y58194229D02*
X72890000Y58098991D01*
X72890000Y58098991D02*
X72890000Y58003753D01*
X72890000Y58003753D02*
X72413810Y57908515D01*
X73080477Y57479943D02*
X73842381Y57479943D01*
X73985239Y58575181D02*
X74604286Y58575181D01*
X74604286Y58575181D02*
X74270953Y58194229D01*
X74270953Y58194229D02*
X74413810Y58194229D01*
X74413810Y58194229D02*
X74509048Y58146610D01*
X74509048Y58146610D02*
X74556667Y58098991D01*
X74556667Y58098991D02*
X74604286Y58003753D01*
X74604286Y58003753D02*
X74604286Y57765658D01*
X74604286Y57765658D02*
X74556667Y57670420D01*
X74556667Y57670420D02*
X74509048Y57622800D01*
X74509048Y57622800D02*
X74413810Y57575181D01*
X74413810Y57575181D02*
X74128096Y57575181D01*
X74128096Y57575181D02*
X74032858Y57622800D01*
X74032858Y57622800D02*
X73985239Y57670420D01*
X75032858Y57670420D02*
X75080477Y57622800D01*
X75080477Y57622800D02*
X75032858Y57575181D01*
X75032858Y57575181D02*
X74985239Y57622800D01*
X74985239Y57622800D02*
X75032858Y57670420D01*
X75032858Y57670420D02*
X75032858Y57575181D01*
X75461429Y58479943D02*
X75509048Y58527562D01*
X75509048Y58527562D02*
X75604286Y58575181D01*
X75604286Y58575181D02*
X75842381Y58575181D01*
X75842381Y58575181D02*
X75937619Y58527562D01*
X75937619Y58527562D02*
X75985238Y58479943D01*
X75985238Y58479943D02*
X76032857Y58384705D01*
X76032857Y58384705D02*
X76032857Y58289467D01*
X76032857Y58289467D02*
X75985238Y58146610D01*
X75985238Y58146610D02*
X75413810Y57575181D01*
X75413810Y57575181D02*
X76032857Y57575181D01*
X76461429Y57575181D02*
X76461429Y58241848D01*
X76461429Y58146610D02*
X76509048Y58194229D01*
X76509048Y58194229D02*
X76604286Y58241848D01*
X76604286Y58241848D02*
X76747143Y58241848D01*
X76747143Y58241848D02*
X76842381Y58194229D01*
X76842381Y58194229D02*
X76890000Y58098991D01*
X76890000Y58098991D02*
X76890000Y57575181D01*
X76890000Y58098991D02*
X76937619Y58194229D01*
X76937619Y58194229D02*
X77032857Y58241848D01*
X77032857Y58241848D02*
X77175714Y58241848D01*
X77175714Y58241848D02*
X77270953Y58194229D01*
X77270953Y58194229D02*
X77318572Y58098991D01*
X77318572Y58098991D02*
X77318572Y57575181D01*
X77794762Y57575181D02*
X77794762Y58241848D01*
X77794762Y58146610D02*
X77842381Y58194229D01*
X77842381Y58194229D02*
X77937619Y58241848D01*
X77937619Y58241848D02*
X78080476Y58241848D01*
X78080476Y58241848D02*
X78175714Y58194229D01*
X78175714Y58194229D02*
X78223333Y58098991D01*
X78223333Y58098991D02*
X78223333Y57575181D01*
X78223333Y58098991D02*
X78270952Y58194229D01*
X78270952Y58194229D02*
X78366190Y58241848D01*
X78366190Y58241848D02*
X78509047Y58241848D01*
X78509047Y58241848D02*
X78604286Y58194229D01*
X78604286Y58194229D02*
X78651905Y58098991D01*
X78651905Y58098991D02*
X78651905Y57575181D01*
X78890000Y57479943D02*
X79651904Y57479943D01*
X79890000Y57575181D02*
X79890000Y58575181D01*
X79890000Y58575181D02*
X80223333Y57860896D01*
X80223333Y57860896D02*
X80556666Y58575181D01*
X80556666Y58575181D02*
X80556666Y57575181D01*
X80937619Y58575181D02*
X81556666Y58575181D01*
X81556666Y58575181D02*
X81223333Y58194229D01*
X81223333Y58194229D02*
X81366190Y58194229D01*
X81366190Y58194229D02*
X81461428Y58146610D01*
X81461428Y58146610D02*
X81509047Y58098991D01*
X81509047Y58098991D02*
X81556666Y58003753D01*
X81556666Y58003753D02*
X81556666Y57765658D01*
X81556666Y57765658D02*
X81509047Y57670420D01*
X81509047Y57670420D02*
X81461428Y57622800D01*
X81461428Y57622800D02*
X81366190Y57575181D01*
X81366190Y57575181D02*
X81080476Y57575181D01*
X81080476Y57575181D02*
X80985238Y57622800D01*
X80985238Y57622800D02*
X80937619Y57670420D01*
X71056666Y61775181D02*
X70723333Y62251372D01*
X70485238Y61775181D02*
X70485238Y62775181D01*
X70485238Y62775181D02*
X70866190Y62775181D01*
X70866190Y62775181D02*
X70961428Y62727562D01*
X70961428Y62727562D02*
X71009047Y62679943D01*
X71009047Y62679943D02*
X71056666Y62584705D01*
X71056666Y62584705D02*
X71056666Y62441848D01*
X71056666Y62441848D02*
X71009047Y62346610D01*
X71009047Y62346610D02*
X70961428Y62298991D01*
X70961428Y62298991D02*
X70866190Y62251372D01*
X70866190Y62251372D02*
X70485238Y62251372D01*
X71485238Y62298991D02*
X71818571Y62298991D01*
X71961428Y61775181D02*
X71485238Y61775181D01*
X71485238Y61775181D02*
X71485238Y62775181D01*
X71485238Y62775181D02*
X71961428Y62775181D01*
X72723333Y62298991D02*
X72390000Y62298991D01*
X72390000Y61775181D02*
X72390000Y62775181D01*
X72390000Y62775181D02*
X72866190Y62775181D01*
X73390000Y62775181D02*
X73390000Y62537086D01*
X73151905Y62632324D02*
X73390000Y62537086D01*
X73390000Y62537086D02*
X73628095Y62632324D01*
X73247143Y62346610D02*
X73390000Y62537086D01*
X73390000Y62537086D02*
X73532857Y62346610D01*
X74151905Y62775181D02*
X74151905Y62537086D01*
X73913810Y62632324D02*
X74151905Y62537086D01*
X74151905Y62537086D02*
X74390000Y62632324D01*
X74009048Y62346610D02*
X74151905Y62537086D01*
X74151905Y62537086D02*
X74294762Y62346610D01*
X51429580Y11895476D02*
X51477200Y11847857D01*
X51477200Y11847857D02*
X51524819Y11705000D01*
X51524819Y11705000D02*
X51524819Y11609762D01*
X51524819Y11609762D02*
X51477200Y11466905D01*
X51477200Y11466905D02*
X51381961Y11371667D01*
X51381961Y11371667D02*
X51286723Y11324048D01*
X51286723Y11324048D02*
X51096247Y11276429D01*
X51096247Y11276429D02*
X50953390Y11276429D01*
X50953390Y11276429D02*
X50762914Y11324048D01*
X50762914Y11324048D02*
X50667676Y11371667D01*
X50667676Y11371667D02*
X50572438Y11466905D01*
X50572438Y11466905D02*
X50524819Y11609762D01*
X50524819Y11609762D02*
X50524819Y11705000D01*
X50524819Y11705000D02*
X50572438Y11847857D01*
X50572438Y11847857D02*
X50620057Y11895476D01*
X51524819Y12466905D02*
X51477200Y12371667D01*
X51477200Y12371667D02*
X51429580Y12324048D01*
X51429580Y12324048D02*
X51334342Y12276429D01*
X51334342Y12276429D02*
X51048628Y12276429D01*
X51048628Y12276429D02*
X50953390Y12324048D01*
X50953390Y12324048D02*
X50905771Y12371667D01*
X50905771Y12371667D02*
X50858152Y12466905D01*
X50858152Y12466905D02*
X50858152Y12609762D01*
X50858152Y12609762D02*
X50905771Y12705000D01*
X50905771Y12705000D02*
X50953390Y12752619D01*
X50953390Y12752619D02*
X51048628Y12800238D01*
X51048628Y12800238D02*
X51334342Y12800238D01*
X51334342Y12800238D02*
X51429580Y12752619D01*
X51429580Y12752619D02*
X51477200Y12705000D01*
X51477200Y12705000D02*
X51524819Y12609762D01*
X51524819Y12609762D02*
X51524819Y12466905D01*
X50858152Y13228810D02*
X51524819Y13228810D01*
X50953390Y13228810D02*
X50905771Y13276429D01*
X50905771Y13276429D02*
X50858152Y13371667D01*
X50858152Y13371667D02*
X50858152Y13514524D01*
X50858152Y13514524D02*
X50905771Y13609762D01*
X50905771Y13609762D02*
X51001009Y13657381D01*
X51001009Y13657381D02*
X51524819Y13657381D01*
X50858152Y14133572D02*
X51524819Y14133572D01*
X50953390Y14133572D02*
X50905771Y14181191D01*
X50905771Y14181191D02*
X50858152Y14276429D01*
X50858152Y14276429D02*
X50858152Y14419286D01*
X50858152Y14419286D02*
X50905771Y14514524D01*
X50905771Y14514524D02*
X51001009Y14562143D01*
X51001009Y14562143D02*
X51524819Y14562143D01*
X51620057Y14800238D02*
X51620057Y15562143D01*
X50524819Y15990715D02*
X50524819Y16085953D01*
X50524819Y16085953D02*
X50572438Y16181191D01*
X50572438Y16181191D02*
X50620057Y16228810D01*
X50620057Y16228810D02*
X50715295Y16276429D01*
X50715295Y16276429D02*
X50905771Y16324048D01*
X50905771Y16324048D02*
X51143866Y16324048D01*
X51143866Y16324048D02*
X51334342Y16276429D01*
X51334342Y16276429D02*
X51429580Y16228810D01*
X51429580Y16228810D02*
X51477200Y16181191D01*
X51477200Y16181191D02*
X51524819Y16085953D01*
X51524819Y16085953D02*
X51524819Y15990715D01*
X51524819Y15990715D02*
X51477200Y15895477D01*
X51477200Y15895477D02*
X51429580Y15847858D01*
X51429580Y15847858D02*
X51334342Y15800239D01*
X51334342Y15800239D02*
X51143866Y15752620D01*
X51143866Y15752620D02*
X50905771Y15752620D01*
X50905771Y15752620D02*
X50715295Y15800239D01*
X50715295Y15800239D02*
X50620057Y15847858D01*
X50620057Y15847858D02*
X50572438Y15895477D01*
X50572438Y15895477D02*
X50524819Y15990715D01*
X51524819Y17276429D02*
X51524819Y16705001D01*
X51524819Y16990715D02*
X50524819Y16990715D01*
X50524819Y16990715D02*
X50667676Y16895477D01*
X50667676Y16895477D02*
X50762914Y16800239D01*
X50762914Y16800239D02*
X50810533Y16705001D01*
X51524819Y17609763D02*
X50858152Y18133572D01*
X50858152Y17609763D02*
X51524819Y18133572D01*
X50524819Y18705001D02*
X50524819Y18800239D01*
X50524819Y18800239D02*
X50572438Y18895477D01*
X50572438Y18895477D02*
X50620057Y18943096D01*
X50620057Y18943096D02*
X50715295Y18990715D01*
X50715295Y18990715D02*
X50905771Y19038334D01*
X50905771Y19038334D02*
X51143866Y19038334D01*
X51143866Y19038334D02*
X51334342Y18990715D01*
X51334342Y18990715D02*
X51429580Y18943096D01*
X51429580Y18943096D02*
X51477200Y18895477D01*
X51477200Y18895477D02*
X51524819Y18800239D01*
X51524819Y18800239D02*
X51524819Y18705001D01*
X51524819Y18705001D02*
X51477200Y18609763D01*
X51477200Y18609763D02*
X51429580Y18562144D01*
X51429580Y18562144D02*
X51334342Y18514525D01*
X51334342Y18514525D02*
X51143866Y18466906D01*
X51143866Y18466906D02*
X50905771Y18466906D01*
X50905771Y18466906D02*
X50715295Y18514525D01*
X50715295Y18514525D02*
X50620057Y18562144D01*
X50620057Y18562144D02*
X50572438Y18609763D01*
X50572438Y18609763D02*
X50524819Y18705001D01*
X50620057Y19419287D02*
X50572438Y19466906D01*
X50572438Y19466906D02*
X50524819Y19562144D01*
X50524819Y19562144D02*
X50524819Y19800239D01*
X50524819Y19800239D02*
X50572438Y19895477D01*
X50572438Y19895477D02*
X50620057Y19943096D01*
X50620057Y19943096D02*
X50715295Y19990715D01*
X50715295Y19990715D02*
X50810533Y19990715D01*
X50810533Y19990715D02*
X50953390Y19943096D01*
X50953390Y19943096D02*
X51524819Y19371668D01*
X51524819Y19371668D02*
X51524819Y19990715D01*
X51620057Y20181191D02*
X51620057Y20943096D01*
X51524819Y21181192D02*
X50524819Y21181192D01*
X50524819Y21181192D02*
X50524819Y21562144D01*
X50524819Y21562144D02*
X50572438Y21657382D01*
X50572438Y21657382D02*
X50620057Y21705001D01*
X50620057Y21705001D02*
X50715295Y21752620D01*
X50715295Y21752620D02*
X50858152Y21752620D01*
X50858152Y21752620D02*
X50953390Y21705001D01*
X50953390Y21705001D02*
X51001009Y21657382D01*
X51001009Y21657382D02*
X51048628Y21562144D01*
X51048628Y21562144D02*
X51048628Y21181192D01*
X51524819Y22181192D02*
X50858152Y22181192D01*
X50524819Y22181192D02*
X50572438Y22133573D01*
X50572438Y22133573D02*
X50620057Y22181192D01*
X50620057Y22181192D02*
X50572438Y22228811D01*
X50572438Y22228811D02*
X50524819Y22181192D01*
X50524819Y22181192D02*
X50620057Y22181192D01*
X50858152Y22657382D02*
X51524819Y22657382D01*
X50953390Y22657382D02*
X50905771Y22705001D01*
X50905771Y22705001D02*
X50858152Y22800239D01*
X50858152Y22800239D02*
X50858152Y22943096D01*
X50858152Y22943096D02*
X50905771Y23038334D01*
X50905771Y23038334D02*
X51001009Y23085953D01*
X51001009Y23085953D02*
X51524819Y23085953D01*
X54276666Y19365181D02*
X54276666Y18650896D01*
X54276666Y18650896D02*
X54229047Y18508039D01*
X54229047Y18508039D02*
X54133809Y18412800D01*
X54133809Y18412800D02*
X53990952Y18365181D01*
X53990952Y18365181D02*
X53895714Y18365181D01*
X55181428Y19031848D02*
X55181428Y18365181D01*
X54943333Y19412800D02*
X54705238Y18698515D01*
X54705238Y18698515D02*
X55324285Y18698515D01*
X63270952Y1695181D02*
X63270952Y2695181D01*
X63270952Y2695181D02*
X63604285Y1980896D01*
X63604285Y1980896D02*
X63937618Y2695181D01*
X63937618Y2695181D02*
X63937618Y1695181D01*
X64556666Y1695181D02*
X64461428Y1742800D01*
X64461428Y1742800D02*
X64413809Y1790420D01*
X64413809Y1790420D02*
X64366190Y1885658D01*
X64366190Y1885658D02*
X64366190Y2171372D01*
X64366190Y2171372D02*
X64413809Y2266610D01*
X64413809Y2266610D02*
X64461428Y2314229D01*
X64461428Y2314229D02*
X64556666Y2361848D01*
X64556666Y2361848D02*
X64699523Y2361848D01*
X64699523Y2361848D02*
X64794761Y2314229D01*
X64794761Y2314229D02*
X64842380Y2266610D01*
X64842380Y2266610D02*
X64889999Y2171372D01*
X64889999Y2171372D02*
X64889999Y1885658D01*
X64889999Y1885658D02*
X64842380Y1790420D01*
X64842380Y1790420D02*
X64794761Y1742800D01*
X64794761Y1742800D02*
X64699523Y1695181D01*
X64699523Y1695181D02*
X64556666Y1695181D01*
X65747142Y2361848D02*
X65747142Y1695181D01*
X65318571Y2361848D02*
X65318571Y1838039D01*
X65318571Y1838039D02*
X65366190Y1742800D01*
X65366190Y1742800D02*
X65461428Y1695181D01*
X65461428Y1695181D02*
X65604285Y1695181D01*
X65604285Y1695181D02*
X65699523Y1742800D01*
X65699523Y1742800D02*
X65747142Y1790420D01*
X66223333Y2361848D02*
X66223333Y1695181D01*
X66223333Y2266610D02*
X66270952Y2314229D01*
X66270952Y2314229D02*
X66366190Y2361848D01*
X66366190Y2361848D02*
X66509047Y2361848D01*
X66509047Y2361848D02*
X66604285Y2314229D01*
X66604285Y2314229D02*
X66651904Y2218991D01*
X66651904Y2218991D02*
X66651904Y1695181D01*
X66985238Y2361848D02*
X67366190Y2361848D01*
X67128095Y2695181D02*
X67128095Y1838039D01*
X67128095Y1838039D02*
X67175714Y1742800D01*
X67175714Y1742800D02*
X67270952Y1695181D01*
X67270952Y1695181D02*
X67366190Y1695181D01*
X67699524Y1695181D02*
X67699524Y2361848D01*
X67699524Y2695181D02*
X67651905Y2647562D01*
X67651905Y2647562D02*
X67699524Y2599943D01*
X67699524Y2599943D02*
X67747143Y2647562D01*
X67747143Y2647562D02*
X67699524Y2695181D01*
X67699524Y2695181D02*
X67699524Y2599943D01*
X68175714Y2361848D02*
X68175714Y1695181D01*
X68175714Y2266610D02*
X68223333Y2314229D01*
X68223333Y2314229D02*
X68318571Y2361848D01*
X68318571Y2361848D02*
X68461428Y2361848D01*
X68461428Y2361848D02*
X68556666Y2314229D01*
X68556666Y2314229D02*
X68604285Y2218991D01*
X68604285Y2218991D02*
X68604285Y1695181D01*
X69509047Y2361848D02*
X69509047Y1552324D01*
X69509047Y1552324D02*
X69461428Y1457086D01*
X69461428Y1457086D02*
X69413809Y1409467D01*
X69413809Y1409467D02*
X69318571Y1361848D01*
X69318571Y1361848D02*
X69175714Y1361848D01*
X69175714Y1361848D02*
X69080476Y1409467D01*
X69509047Y1742800D02*
X69413809Y1695181D01*
X69413809Y1695181D02*
X69223333Y1695181D01*
X69223333Y1695181D02*
X69128095Y1742800D01*
X69128095Y1742800D02*
X69080476Y1790420D01*
X69080476Y1790420D02*
X69032857Y1885658D01*
X69032857Y1885658D02*
X69032857Y2171372D01*
X69032857Y2171372D02*
X69080476Y2266610D01*
X69080476Y2266610D02*
X69128095Y2314229D01*
X69128095Y2314229D02*
X69223333Y2361848D01*
X69223333Y2361848D02*
X69413809Y2361848D01*
X69413809Y2361848D02*
X69509047Y2314229D01*
X69985238Y1695181D02*
X69985238Y2695181D01*
X69985238Y2218991D02*
X70556666Y2218991D01*
X70556666Y1695181D02*
X70556666Y2695181D01*
X71175714Y1695181D02*
X71080476Y1742800D01*
X71080476Y1742800D02*
X71032857Y1790420D01*
X71032857Y1790420D02*
X70985238Y1885658D01*
X70985238Y1885658D02*
X70985238Y2171372D01*
X70985238Y2171372D02*
X71032857Y2266610D01*
X71032857Y2266610D02*
X71080476Y2314229D01*
X71080476Y2314229D02*
X71175714Y2361848D01*
X71175714Y2361848D02*
X71318571Y2361848D01*
X71318571Y2361848D02*
X71413809Y2314229D01*
X71413809Y2314229D02*
X71461428Y2266610D01*
X71461428Y2266610D02*
X71509047Y2171372D01*
X71509047Y2171372D02*
X71509047Y1885658D01*
X71509047Y1885658D02*
X71461428Y1790420D01*
X71461428Y1790420D02*
X71413809Y1742800D01*
X71413809Y1742800D02*
X71318571Y1695181D01*
X71318571Y1695181D02*
X71175714Y1695181D01*
X72080476Y1695181D02*
X71985238Y1742800D01*
X71985238Y1742800D02*
X71937619Y1838039D01*
X71937619Y1838039D02*
X71937619Y2695181D01*
X72842381Y1742800D02*
X72747143Y1695181D01*
X72747143Y1695181D02*
X72556667Y1695181D01*
X72556667Y1695181D02*
X72461429Y1742800D01*
X72461429Y1742800D02*
X72413810Y1838039D01*
X72413810Y1838039D02*
X72413810Y2218991D01*
X72413810Y2218991D02*
X72461429Y2314229D01*
X72461429Y2314229D02*
X72556667Y2361848D01*
X72556667Y2361848D02*
X72747143Y2361848D01*
X72747143Y2361848D02*
X72842381Y2314229D01*
X72842381Y2314229D02*
X72890000Y2218991D01*
X72890000Y2218991D02*
X72890000Y2123753D01*
X72890000Y2123753D02*
X72413810Y2028515D01*
X73080477Y1599943D02*
X73842381Y1599943D01*
X73985239Y2695181D02*
X74604286Y2695181D01*
X74604286Y2695181D02*
X74270953Y2314229D01*
X74270953Y2314229D02*
X74413810Y2314229D01*
X74413810Y2314229D02*
X74509048Y2266610D01*
X74509048Y2266610D02*
X74556667Y2218991D01*
X74556667Y2218991D02*
X74604286Y2123753D01*
X74604286Y2123753D02*
X74604286Y1885658D01*
X74604286Y1885658D02*
X74556667Y1790420D01*
X74556667Y1790420D02*
X74509048Y1742800D01*
X74509048Y1742800D02*
X74413810Y1695181D01*
X74413810Y1695181D02*
X74128096Y1695181D01*
X74128096Y1695181D02*
X74032858Y1742800D01*
X74032858Y1742800D02*
X73985239Y1790420D01*
X75032858Y1790420D02*
X75080477Y1742800D01*
X75080477Y1742800D02*
X75032858Y1695181D01*
X75032858Y1695181D02*
X74985239Y1742800D01*
X74985239Y1742800D02*
X75032858Y1790420D01*
X75032858Y1790420D02*
X75032858Y1695181D01*
X75461429Y2599943D02*
X75509048Y2647562D01*
X75509048Y2647562D02*
X75604286Y2695181D01*
X75604286Y2695181D02*
X75842381Y2695181D01*
X75842381Y2695181D02*
X75937619Y2647562D01*
X75937619Y2647562D02*
X75985238Y2599943D01*
X75985238Y2599943D02*
X76032857Y2504705D01*
X76032857Y2504705D02*
X76032857Y2409467D01*
X76032857Y2409467D02*
X75985238Y2266610D01*
X75985238Y2266610D02*
X75413810Y1695181D01*
X75413810Y1695181D02*
X76032857Y1695181D01*
X76461429Y1695181D02*
X76461429Y2361848D01*
X76461429Y2266610D02*
X76509048Y2314229D01*
X76509048Y2314229D02*
X76604286Y2361848D01*
X76604286Y2361848D02*
X76747143Y2361848D01*
X76747143Y2361848D02*
X76842381Y2314229D01*
X76842381Y2314229D02*
X76890000Y2218991D01*
X76890000Y2218991D02*
X76890000Y1695181D01*
X76890000Y2218991D02*
X76937619Y2314229D01*
X76937619Y2314229D02*
X77032857Y2361848D01*
X77032857Y2361848D02*
X77175714Y2361848D01*
X77175714Y2361848D02*
X77270953Y2314229D01*
X77270953Y2314229D02*
X77318572Y2218991D01*
X77318572Y2218991D02*
X77318572Y1695181D01*
X77794762Y1695181D02*
X77794762Y2361848D01*
X77794762Y2266610D02*
X77842381Y2314229D01*
X77842381Y2314229D02*
X77937619Y2361848D01*
X77937619Y2361848D02*
X78080476Y2361848D01*
X78080476Y2361848D02*
X78175714Y2314229D01*
X78175714Y2314229D02*
X78223333Y2218991D01*
X78223333Y2218991D02*
X78223333Y1695181D01*
X78223333Y2218991D02*
X78270952Y2314229D01*
X78270952Y2314229D02*
X78366190Y2361848D01*
X78366190Y2361848D02*
X78509047Y2361848D01*
X78509047Y2361848D02*
X78604286Y2314229D01*
X78604286Y2314229D02*
X78651905Y2218991D01*
X78651905Y2218991D02*
X78651905Y1695181D01*
X78890000Y1599943D02*
X79651904Y1599943D01*
X79890000Y1695181D02*
X79890000Y2695181D01*
X79890000Y2695181D02*
X80223333Y1980896D01*
X80223333Y1980896D02*
X80556666Y2695181D01*
X80556666Y2695181D02*
X80556666Y1695181D01*
X80937619Y2695181D02*
X81556666Y2695181D01*
X81556666Y2695181D02*
X81223333Y2314229D01*
X81223333Y2314229D02*
X81366190Y2314229D01*
X81366190Y2314229D02*
X81461428Y2266610D01*
X81461428Y2266610D02*
X81509047Y2218991D01*
X81509047Y2218991D02*
X81556666Y2123753D01*
X81556666Y2123753D02*
X81556666Y1885658D01*
X81556666Y1885658D02*
X81509047Y1790420D01*
X81509047Y1790420D02*
X81461428Y1742800D01*
X81461428Y1742800D02*
X81366190Y1695181D01*
X81366190Y1695181D02*
X81080476Y1695181D01*
X81080476Y1695181D02*
X80985238Y1742800D01*
X80985238Y1742800D02*
X80937619Y1790420D01*
X71056666Y5895181D02*
X70723333Y6371372D01*
X70485238Y5895181D02*
X70485238Y6895181D01*
X70485238Y6895181D02*
X70866190Y6895181D01*
X70866190Y6895181D02*
X70961428Y6847562D01*
X70961428Y6847562D02*
X71009047Y6799943D01*
X71009047Y6799943D02*
X71056666Y6704705D01*
X71056666Y6704705D02*
X71056666Y6561848D01*
X71056666Y6561848D02*
X71009047Y6466610D01*
X71009047Y6466610D02*
X70961428Y6418991D01*
X70961428Y6418991D02*
X70866190Y6371372D01*
X70866190Y6371372D02*
X70485238Y6371372D01*
X71485238Y6418991D02*
X71818571Y6418991D01*
X71961428Y5895181D02*
X71485238Y5895181D01*
X71485238Y5895181D02*
X71485238Y6895181D01*
X71485238Y6895181D02*
X71961428Y6895181D01*
X72723333Y6418991D02*
X72390000Y6418991D01*
X72390000Y5895181D02*
X72390000Y6895181D01*
X72390000Y6895181D02*
X72866190Y6895181D01*
X73390000Y6895181D02*
X73390000Y6657086D01*
X73151905Y6752324D02*
X73390000Y6657086D01*
X73390000Y6657086D02*
X73628095Y6752324D01*
X73247143Y6466610D02*
X73390000Y6657086D01*
X73390000Y6657086D02*
X73532857Y6466610D01*
X74151905Y6895181D02*
X74151905Y6657086D01*
X73913810Y6752324D02*
X74151905Y6657086D01*
X74151905Y6657086D02*
X74390000Y6752324D01*
X74009048Y6466610D02*
X74151905Y6657086D01*
X74151905Y6657086D02*
X74294762Y6466610D01*
X43809580Y11895476D02*
X43857200Y11847857D01*
X43857200Y11847857D02*
X43904819Y11705000D01*
X43904819Y11705000D02*
X43904819Y11609762D01*
X43904819Y11609762D02*
X43857200Y11466905D01*
X43857200Y11466905D02*
X43761961Y11371667D01*
X43761961Y11371667D02*
X43666723Y11324048D01*
X43666723Y11324048D02*
X43476247Y11276429D01*
X43476247Y11276429D02*
X43333390Y11276429D01*
X43333390Y11276429D02*
X43142914Y11324048D01*
X43142914Y11324048D02*
X43047676Y11371667D01*
X43047676Y11371667D02*
X42952438Y11466905D01*
X42952438Y11466905D02*
X42904819Y11609762D01*
X42904819Y11609762D02*
X42904819Y11705000D01*
X42904819Y11705000D02*
X42952438Y11847857D01*
X42952438Y11847857D02*
X43000057Y11895476D01*
X43904819Y12466905D02*
X43857200Y12371667D01*
X43857200Y12371667D02*
X43809580Y12324048D01*
X43809580Y12324048D02*
X43714342Y12276429D01*
X43714342Y12276429D02*
X43428628Y12276429D01*
X43428628Y12276429D02*
X43333390Y12324048D01*
X43333390Y12324048D02*
X43285771Y12371667D01*
X43285771Y12371667D02*
X43238152Y12466905D01*
X43238152Y12466905D02*
X43238152Y12609762D01*
X43238152Y12609762D02*
X43285771Y12705000D01*
X43285771Y12705000D02*
X43333390Y12752619D01*
X43333390Y12752619D02*
X43428628Y12800238D01*
X43428628Y12800238D02*
X43714342Y12800238D01*
X43714342Y12800238D02*
X43809580Y12752619D01*
X43809580Y12752619D02*
X43857200Y12705000D01*
X43857200Y12705000D02*
X43904819Y12609762D01*
X43904819Y12609762D02*
X43904819Y12466905D01*
X43238152Y13228810D02*
X43904819Y13228810D01*
X43333390Y13228810D02*
X43285771Y13276429D01*
X43285771Y13276429D02*
X43238152Y13371667D01*
X43238152Y13371667D02*
X43238152Y13514524D01*
X43238152Y13514524D02*
X43285771Y13609762D01*
X43285771Y13609762D02*
X43381009Y13657381D01*
X43381009Y13657381D02*
X43904819Y13657381D01*
X43238152Y14133572D02*
X43904819Y14133572D01*
X43333390Y14133572D02*
X43285771Y14181191D01*
X43285771Y14181191D02*
X43238152Y14276429D01*
X43238152Y14276429D02*
X43238152Y14419286D01*
X43238152Y14419286D02*
X43285771Y14514524D01*
X43285771Y14514524D02*
X43381009Y14562143D01*
X43381009Y14562143D02*
X43904819Y14562143D01*
X44000057Y14800238D02*
X44000057Y15562143D01*
X42904819Y15990715D02*
X42904819Y16085953D01*
X42904819Y16085953D02*
X42952438Y16181191D01*
X42952438Y16181191D02*
X43000057Y16228810D01*
X43000057Y16228810D02*
X43095295Y16276429D01*
X43095295Y16276429D02*
X43285771Y16324048D01*
X43285771Y16324048D02*
X43523866Y16324048D01*
X43523866Y16324048D02*
X43714342Y16276429D01*
X43714342Y16276429D02*
X43809580Y16228810D01*
X43809580Y16228810D02*
X43857200Y16181191D01*
X43857200Y16181191D02*
X43904819Y16085953D01*
X43904819Y16085953D02*
X43904819Y15990715D01*
X43904819Y15990715D02*
X43857200Y15895477D01*
X43857200Y15895477D02*
X43809580Y15847858D01*
X43809580Y15847858D02*
X43714342Y15800239D01*
X43714342Y15800239D02*
X43523866Y15752620D01*
X43523866Y15752620D02*
X43285771Y15752620D01*
X43285771Y15752620D02*
X43095295Y15800239D01*
X43095295Y15800239D02*
X43000057Y15847858D01*
X43000057Y15847858D02*
X42952438Y15895477D01*
X42952438Y15895477D02*
X42904819Y15990715D01*
X43904819Y17276429D02*
X43904819Y16705001D01*
X43904819Y16990715D02*
X42904819Y16990715D01*
X42904819Y16990715D02*
X43047676Y16895477D01*
X43047676Y16895477D02*
X43142914Y16800239D01*
X43142914Y16800239D02*
X43190533Y16705001D01*
X43904819Y17609763D02*
X43238152Y18133572D01*
X43238152Y17609763D02*
X43904819Y18133572D01*
X42904819Y18705001D02*
X42904819Y18800239D01*
X42904819Y18800239D02*
X42952438Y18895477D01*
X42952438Y18895477D02*
X43000057Y18943096D01*
X43000057Y18943096D02*
X43095295Y18990715D01*
X43095295Y18990715D02*
X43285771Y19038334D01*
X43285771Y19038334D02*
X43523866Y19038334D01*
X43523866Y19038334D02*
X43714342Y18990715D01*
X43714342Y18990715D02*
X43809580Y18943096D01*
X43809580Y18943096D02*
X43857200Y18895477D01*
X43857200Y18895477D02*
X43904819Y18800239D01*
X43904819Y18800239D02*
X43904819Y18705001D01*
X43904819Y18705001D02*
X43857200Y18609763D01*
X43857200Y18609763D02*
X43809580Y18562144D01*
X43809580Y18562144D02*
X43714342Y18514525D01*
X43714342Y18514525D02*
X43523866Y18466906D01*
X43523866Y18466906D02*
X43285771Y18466906D01*
X43285771Y18466906D02*
X43095295Y18514525D01*
X43095295Y18514525D02*
X43000057Y18562144D01*
X43000057Y18562144D02*
X42952438Y18609763D01*
X42952438Y18609763D02*
X42904819Y18705001D01*
X43000057Y19419287D02*
X42952438Y19466906D01*
X42952438Y19466906D02*
X42904819Y19562144D01*
X42904819Y19562144D02*
X42904819Y19800239D01*
X42904819Y19800239D02*
X42952438Y19895477D01*
X42952438Y19895477D02*
X43000057Y19943096D01*
X43000057Y19943096D02*
X43095295Y19990715D01*
X43095295Y19990715D02*
X43190533Y19990715D01*
X43190533Y19990715D02*
X43333390Y19943096D01*
X43333390Y19943096D02*
X43904819Y19371668D01*
X43904819Y19371668D02*
X43904819Y19990715D01*
X44000057Y20181191D02*
X44000057Y20943096D01*
X43904819Y21181192D02*
X42904819Y21181192D01*
X42904819Y21181192D02*
X42904819Y21562144D01*
X42904819Y21562144D02*
X42952438Y21657382D01*
X42952438Y21657382D02*
X43000057Y21705001D01*
X43000057Y21705001D02*
X43095295Y21752620D01*
X43095295Y21752620D02*
X43238152Y21752620D01*
X43238152Y21752620D02*
X43333390Y21705001D01*
X43333390Y21705001D02*
X43381009Y21657382D01*
X43381009Y21657382D02*
X43428628Y21562144D01*
X43428628Y21562144D02*
X43428628Y21181192D01*
X43904819Y22181192D02*
X43238152Y22181192D01*
X42904819Y22181192D02*
X42952438Y22133573D01*
X42952438Y22133573D02*
X43000057Y22181192D01*
X43000057Y22181192D02*
X42952438Y22228811D01*
X42952438Y22228811D02*
X42904819Y22181192D01*
X42904819Y22181192D02*
X43000057Y22181192D01*
X43238152Y22657382D02*
X43904819Y22657382D01*
X43333390Y22657382D02*
X43285771Y22705001D01*
X43285771Y22705001D02*
X43238152Y22800239D01*
X43238152Y22800239D02*
X43238152Y22943096D01*
X43238152Y22943096D02*
X43285771Y23038334D01*
X43285771Y23038334D02*
X43381009Y23085953D01*
X43381009Y23085953D02*
X43904819Y23085953D01*
X46656666Y19365181D02*
X46656666Y18650896D01*
X46656666Y18650896D02*
X46609047Y18508039D01*
X46609047Y18508039D02*
X46513809Y18412800D01*
X46513809Y18412800D02*
X46370952Y18365181D01*
X46370952Y18365181D02*
X46275714Y18365181D01*
X47037619Y19365181D02*
X47656666Y19365181D01*
X47656666Y19365181D02*
X47323333Y18984229D01*
X47323333Y18984229D02*
X47466190Y18984229D01*
X47466190Y18984229D02*
X47561428Y18936610D01*
X47561428Y18936610D02*
X47609047Y18888991D01*
X47609047Y18888991D02*
X47656666Y18793753D01*
X47656666Y18793753D02*
X47656666Y18555658D01*
X47656666Y18555658D02*
X47609047Y18460420D01*
X47609047Y18460420D02*
X47561428Y18412800D01*
X47561428Y18412800D02*
X47466190Y18365181D01*
X47466190Y18365181D02*
X47180476Y18365181D01*
X47180476Y18365181D02*
X47085238Y18412800D01*
X47085238Y18412800D02*
X47037619Y18460420D01*
X30088152Y36139524D02*
X30754819Y36139524D01*
X29707200Y35901429D02*
X30421485Y35663334D01*
X30421485Y35663334D02*
X30421485Y36282381D01*
X30754819Y36663334D02*
X29754819Y36663334D01*
X30373866Y36758572D02*
X30754819Y37044286D01*
X30088152Y37044286D02*
X30469104Y36663334D01*
X29754819Y37377620D02*
X29754819Y38044286D01*
X29754819Y38044286D02*
X30754819Y37615715D01*
X33474819Y36663334D02*
X32998628Y36330001D01*
X33474819Y36091906D02*
X32474819Y36091906D01*
X32474819Y36091906D02*
X32474819Y36472858D01*
X32474819Y36472858D02*
X32522438Y36568096D01*
X32522438Y36568096D02*
X32570057Y36615715D01*
X32570057Y36615715D02*
X32665295Y36663334D01*
X32665295Y36663334D02*
X32808152Y36663334D01*
X32808152Y36663334D02*
X32903390Y36615715D01*
X32903390Y36615715D02*
X32951009Y36568096D01*
X32951009Y36568096D02*
X32998628Y36472858D01*
X32998628Y36472858D02*
X32998628Y36091906D01*
X33474819Y37615715D02*
X33474819Y37044287D01*
X33474819Y37330001D02*
X32474819Y37330001D01*
X32474819Y37330001D02*
X32617676Y37234763D01*
X32617676Y37234763D02*
X32712914Y37139525D01*
X32712914Y37139525D02*
X32760533Y37044287D01*
X63845475Y16420420D02*
X63797856Y16372800D01*
X63797856Y16372800D02*
X63654999Y16325181D01*
X63654999Y16325181D02*
X63559761Y16325181D01*
X63559761Y16325181D02*
X63416904Y16372800D01*
X63416904Y16372800D02*
X63321666Y16468039D01*
X63321666Y16468039D02*
X63274047Y16563277D01*
X63274047Y16563277D02*
X63226428Y16753753D01*
X63226428Y16753753D02*
X63226428Y16896610D01*
X63226428Y16896610D02*
X63274047Y17087086D01*
X63274047Y17087086D02*
X63321666Y17182324D01*
X63321666Y17182324D02*
X63416904Y17277562D01*
X63416904Y17277562D02*
X63559761Y17325181D01*
X63559761Y17325181D02*
X63654999Y17325181D01*
X63654999Y17325181D02*
X63797856Y17277562D01*
X63797856Y17277562D02*
X63845475Y17229943D01*
X64416904Y16325181D02*
X64321666Y16372800D01*
X64321666Y16372800D02*
X64274047Y16420420D01*
X64274047Y16420420D02*
X64226428Y16515658D01*
X64226428Y16515658D02*
X64226428Y16801372D01*
X64226428Y16801372D02*
X64274047Y16896610D01*
X64274047Y16896610D02*
X64321666Y16944229D01*
X64321666Y16944229D02*
X64416904Y16991848D01*
X64416904Y16991848D02*
X64559761Y16991848D01*
X64559761Y16991848D02*
X64654999Y16944229D01*
X64654999Y16944229D02*
X64702618Y16896610D01*
X64702618Y16896610D02*
X64750237Y16801372D01*
X64750237Y16801372D02*
X64750237Y16515658D01*
X64750237Y16515658D02*
X64702618Y16420420D01*
X64702618Y16420420D02*
X64654999Y16372800D01*
X64654999Y16372800D02*
X64559761Y16325181D01*
X64559761Y16325181D02*
X64416904Y16325181D01*
X65178809Y16991848D02*
X65178809Y16325181D01*
X65178809Y16896610D02*
X65226428Y16944229D01*
X65226428Y16944229D02*
X65321666Y16991848D01*
X65321666Y16991848D02*
X65464523Y16991848D01*
X65464523Y16991848D02*
X65559761Y16944229D01*
X65559761Y16944229D02*
X65607380Y16848991D01*
X65607380Y16848991D02*
X65607380Y16325181D01*
X66083571Y16991848D02*
X66083571Y16325181D01*
X66083571Y16896610D02*
X66131190Y16944229D01*
X66131190Y16944229D02*
X66226428Y16991848D01*
X66226428Y16991848D02*
X66369285Y16991848D01*
X66369285Y16991848D02*
X66464523Y16944229D01*
X66464523Y16944229D02*
X66512142Y16848991D01*
X66512142Y16848991D02*
X66512142Y16325181D01*
X66750238Y16229943D02*
X67512142Y16229943D01*
X67940714Y17325181D02*
X68035952Y17325181D01*
X68035952Y17325181D02*
X68131190Y17277562D01*
X68131190Y17277562D02*
X68178809Y17229943D01*
X68178809Y17229943D02*
X68226428Y17134705D01*
X68226428Y17134705D02*
X68274047Y16944229D01*
X68274047Y16944229D02*
X68274047Y16706134D01*
X68274047Y16706134D02*
X68226428Y16515658D01*
X68226428Y16515658D02*
X68178809Y16420420D01*
X68178809Y16420420D02*
X68131190Y16372800D01*
X68131190Y16372800D02*
X68035952Y16325181D01*
X68035952Y16325181D02*
X67940714Y16325181D01*
X67940714Y16325181D02*
X67845476Y16372800D01*
X67845476Y16372800D02*
X67797857Y16420420D01*
X67797857Y16420420D02*
X67750238Y16515658D01*
X67750238Y16515658D02*
X67702619Y16706134D01*
X67702619Y16706134D02*
X67702619Y16944229D01*
X67702619Y16944229D02*
X67750238Y17134705D01*
X67750238Y17134705D02*
X67797857Y17229943D01*
X67797857Y17229943D02*
X67845476Y17277562D01*
X67845476Y17277562D02*
X67940714Y17325181D01*
X69226428Y16325181D02*
X68655000Y16325181D01*
X68940714Y16325181D02*
X68940714Y17325181D01*
X68940714Y17325181D02*
X68845476Y17182324D01*
X68845476Y17182324D02*
X68750238Y17087086D01*
X68750238Y17087086D02*
X68655000Y17039467D01*
X69559762Y16325181D02*
X70083571Y16991848D01*
X69559762Y16991848D02*
X70083571Y16325181D01*
X70655000Y17325181D02*
X70750238Y17325181D01*
X70750238Y17325181D02*
X70845476Y17277562D01*
X70845476Y17277562D02*
X70893095Y17229943D01*
X70893095Y17229943D02*
X70940714Y17134705D01*
X70940714Y17134705D02*
X70988333Y16944229D01*
X70988333Y16944229D02*
X70988333Y16706134D01*
X70988333Y16706134D02*
X70940714Y16515658D01*
X70940714Y16515658D02*
X70893095Y16420420D01*
X70893095Y16420420D02*
X70845476Y16372800D01*
X70845476Y16372800D02*
X70750238Y16325181D01*
X70750238Y16325181D02*
X70655000Y16325181D01*
X70655000Y16325181D02*
X70559762Y16372800D01*
X70559762Y16372800D02*
X70512143Y16420420D01*
X70512143Y16420420D02*
X70464524Y16515658D01*
X70464524Y16515658D02*
X70416905Y16706134D01*
X70416905Y16706134D02*
X70416905Y16944229D01*
X70416905Y16944229D02*
X70464524Y17134705D01*
X70464524Y17134705D02*
X70512143Y17229943D01*
X70512143Y17229943D02*
X70559762Y17277562D01*
X70559762Y17277562D02*
X70655000Y17325181D01*
X71369286Y17229943D02*
X71416905Y17277562D01*
X71416905Y17277562D02*
X71512143Y17325181D01*
X71512143Y17325181D02*
X71750238Y17325181D01*
X71750238Y17325181D02*
X71845476Y17277562D01*
X71845476Y17277562D02*
X71893095Y17229943D01*
X71893095Y17229943D02*
X71940714Y17134705D01*
X71940714Y17134705D02*
X71940714Y17039467D01*
X71940714Y17039467D02*
X71893095Y16896610D01*
X71893095Y16896610D02*
X71321667Y16325181D01*
X71321667Y16325181D02*
X71940714Y16325181D01*
X72131191Y16229943D02*
X72893095Y16229943D01*
X73131191Y16325181D02*
X73131191Y17325181D01*
X73131191Y17325181D02*
X73512143Y17325181D01*
X73512143Y17325181D02*
X73607381Y17277562D01*
X73607381Y17277562D02*
X73655000Y17229943D01*
X73655000Y17229943D02*
X73702619Y17134705D01*
X73702619Y17134705D02*
X73702619Y16991848D01*
X73702619Y16991848D02*
X73655000Y16896610D01*
X73655000Y16896610D02*
X73607381Y16848991D01*
X73607381Y16848991D02*
X73512143Y16801372D01*
X73512143Y16801372D02*
X73131191Y16801372D01*
X74131191Y16325181D02*
X74131191Y16991848D01*
X74131191Y17325181D02*
X74083572Y17277562D01*
X74083572Y17277562D02*
X74131191Y17229943D01*
X74131191Y17229943D02*
X74178810Y17277562D01*
X74178810Y17277562D02*
X74131191Y17325181D01*
X74131191Y17325181D02*
X74131191Y17229943D01*
X74607381Y16991848D02*
X74607381Y16325181D01*
X74607381Y16896610D02*
X74655000Y16944229D01*
X74655000Y16944229D02*
X74750238Y16991848D01*
X74750238Y16991848D02*
X74893095Y16991848D01*
X74893095Y16991848D02*
X74988333Y16944229D01*
X74988333Y16944229D02*
X75035952Y16848991D01*
X75035952Y16848991D02*
X75035952Y16325181D01*
X66994819Y19986667D02*
X67709104Y19986667D01*
X67709104Y19986667D02*
X67851961Y19939048D01*
X67851961Y19939048D02*
X67947200Y19843810D01*
X67947200Y19843810D02*
X67994819Y19700953D01*
X67994819Y19700953D02*
X67994819Y19605715D01*
X66994819Y20939048D02*
X66994819Y20462858D01*
X66994819Y20462858D02*
X67471009Y20415239D01*
X67471009Y20415239D02*
X67423390Y20462858D01*
X67423390Y20462858D02*
X67375771Y20558096D01*
X67375771Y20558096D02*
X67375771Y20796191D01*
X67375771Y20796191D02*
X67423390Y20891429D01*
X67423390Y20891429D02*
X67471009Y20939048D01*
X67471009Y20939048D02*
X67566247Y20986667D01*
X67566247Y20986667D02*
X67804342Y20986667D01*
X67804342Y20986667D02*
X67899580Y20939048D01*
X67899580Y20939048D02*
X67947200Y20891429D01*
X67947200Y20891429D02*
X67994819Y20796191D01*
X67994819Y20796191D02*
X67994819Y20558096D01*
X67994819Y20558096D02*
X67947200Y20462858D01*
X67947200Y20462858D02*
X67899580Y20415239D01*
X33898152Y38679524D02*
X34564819Y38679524D01*
X33517200Y38441429D02*
X34231485Y38203334D01*
X34231485Y38203334D02*
X34231485Y38822381D01*
X34564819Y39203334D02*
X33564819Y39203334D01*
X34183866Y39298572D02*
X34564819Y39584286D01*
X33898152Y39584286D02*
X34279104Y39203334D01*
X33564819Y39917620D02*
X33564819Y40584286D01*
X33564819Y40584286D02*
X34564819Y40155715D01*
X37284819Y39203334D02*
X36808628Y38870001D01*
X37284819Y38631906D02*
X36284819Y38631906D01*
X36284819Y38631906D02*
X36284819Y39012858D01*
X36284819Y39012858D02*
X36332438Y39108096D01*
X36332438Y39108096D02*
X36380057Y39155715D01*
X36380057Y39155715D02*
X36475295Y39203334D01*
X36475295Y39203334D02*
X36618152Y39203334D01*
X36618152Y39203334D02*
X36713390Y39155715D01*
X36713390Y39155715D02*
X36761009Y39108096D01*
X36761009Y39108096D02*
X36808628Y39012858D01*
X36808628Y39012858D02*
X36808628Y38631906D01*
X36380057Y39584287D02*
X36332438Y39631906D01*
X36332438Y39631906D02*
X36284819Y39727144D01*
X36284819Y39727144D02*
X36284819Y39965239D01*
X36284819Y39965239D02*
X36332438Y40060477D01*
X36332438Y40060477D02*
X36380057Y40108096D01*
X36380057Y40108096D02*
X36475295Y40155715D01*
X36475295Y40155715D02*
X36570533Y40155715D01*
X36570533Y40155715D02*
X36713390Y40108096D01*
X36713390Y40108096D02*
X37284819Y39536668D01*
X37284819Y39536668D02*
X37284819Y40155715D01*
X63845475Y31660420D02*
X63797856Y31612800D01*
X63797856Y31612800D02*
X63654999Y31565181D01*
X63654999Y31565181D02*
X63559761Y31565181D01*
X63559761Y31565181D02*
X63416904Y31612800D01*
X63416904Y31612800D02*
X63321666Y31708039D01*
X63321666Y31708039D02*
X63274047Y31803277D01*
X63274047Y31803277D02*
X63226428Y31993753D01*
X63226428Y31993753D02*
X63226428Y32136610D01*
X63226428Y32136610D02*
X63274047Y32327086D01*
X63274047Y32327086D02*
X63321666Y32422324D01*
X63321666Y32422324D02*
X63416904Y32517562D01*
X63416904Y32517562D02*
X63559761Y32565181D01*
X63559761Y32565181D02*
X63654999Y32565181D01*
X63654999Y32565181D02*
X63797856Y32517562D01*
X63797856Y32517562D02*
X63845475Y32469943D01*
X64416904Y31565181D02*
X64321666Y31612800D01*
X64321666Y31612800D02*
X64274047Y31660420D01*
X64274047Y31660420D02*
X64226428Y31755658D01*
X64226428Y31755658D02*
X64226428Y32041372D01*
X64226428Y32041372D02*
X64274047Y32136610D01*
X64274047Y32136610D02*
X64321666Y32184229D01*
X64321666Y32184229D02*
X64416904Y32231848D01*
X64416904Y32231848D02*
X64559761Y32231848D01*
X64559761Y32231848D02*
X64654999Y32184229D01*
X64654999Y32184229D02*
X64702618Y32136610D01*
X64702618Y32136610D02*
X64750237Y32041372D01*
X64750237Y32041372D02*
X64750237Y31755658D01*
X64750237Y31755658D02*
X64702618Y31660420D01*
X64702618Y31660420D02*
X64654999Y31612800D01*
X64654999Y31612800D02*
X64559761Y31565181D01*
X64559761Y31565181D02*
X64416904Y31565181D01*
X65178809Y32231848D02*
X65178809Y31565181D01*
X65178809Y32136610D02*
X65226428Y32184229D01*
X65226428Y32184229D02*
X65321666Y32231848D01*
X65321666Y32231848D02*
X65464523Y32231848D01*
X65464523Y32231848D02*
X65559761Y32184229D01*
X65559761Y32184229D02*
X65607380Y32088991D01*
X65607380Y32088991D02*
X65607380Y31565181D01*
X66083571Y32231848D02*
X66083571Y31565181D01*
X66083571Y32136610D02*
X66131190Y32184229D01*
X66131190Y32184229D02*
X66226428Y32231848D01*
X66226428Y32231848D02*
X66369285Y32231848D01*
X66369285Y32231848D02*
X66464523Y32184229D01*
X66464523Y32184229D02*
X66512142Y32088991D01*
X66512142Y32088991D02*
X66512142Y31565181D01*
X66750238Y31469943D02*
X67512142Y31469943D01*
X67940714Y32565181D02*
X68035952Y32565181D01*
X68035952Y32565181D02*
X68131190Y32517562D01*
X68131190Y32517562D02*
X68178809Y32469943D01*
X68178809Y32469943D02*
X68226428Y32374705D01*
X68226428Y32374705D02*
X68274047Y32184229D01*
X68274047Y32184229D02*
X68274047Y31946134D01*
X68274047Y31946134D02*
X68226428Y31755658D01*
X68226428Y31755658D02*
X68178809Y31660420D01*
X68178809Y31660420D02*
X68131190Y31612800D01*
X68131190Y31612800D02*
X68035952Y31565181D01*
X68035952Y31565181D02*
X67940714Y31565181D01*
X67940714Y31565181D02*
X67845476Y31612800D01*
X67845476Y31612800D02*
X67797857Y31660420D01*
X67797857Y31660420D02*
X67750238Y31755658D01*
X67750238Y31755658D02*
X67702619Y31946134D01*
X67702619Y31946134D02*
X67702619Y32184229D01*
X67702619Y32184229D02*
X67750238Y32374705D01*
X67750238Y32374705D02*
X67797857Y32469943D01*
X67797857Y32469943D02*
X67845476Y32517562D01*
X67845476Y32517562D02*
X67940714Y32565181D01*
X69226428Y31565181D02*
X68655000Y31565181D01*
X68940714Y31565181D02*
X68940714Y32565181D01*
X68940714Y32565181D02*
X68845476Y32422324D01*
X68845476Y32422324D02*
X68750238Y32327086D01*
X68750238Y32327086D02*
X68655000Y32279467D01*
X69559762Y31565181D02*
X70083571Y32231848D01*
X69559762Y32231848D02*
X70083571Y31565181D01*
X70655000Y32565181D02*
X70750238Y32565181D01*
X70750238Y32565181D02*
X70845476Y32517562D01*
X70845476Y32517562D02*
X70893095Y32469943D01*
X70893095Y32469943D02*
X70940714Y32374705D01*
X70940714Y32374705D02*
X70988333Y32184229D01*
X70988333Y32184229D02*
X70988333Y31946134D01*
X70988333Y31946134D02*
X70940714Y31755658D01*
X70940714Y31755658D02*
X70893095Y31660420D01*
X70893095Y31660420D02*
X70845476Y31612800D01*
X70845476Y31612800D02*
X70750238Y31565181D01*
X70750238Y31565181D02*
X70655000Y31565181D01*
X70655000Y31565181D02*
X70559762Y31612800D01*
X70559762Y31612800D02*
X70512143Y31660420D01*
X70512143Y31660420D02*
X70464524Y31755658D01*
X70464524Y31755658D02*
X70416905Y31946134D01*
X70416905Y31946134D02*
X70416905Y32184229D01*
X70416905Y32184229D02*
X70464524Y32374705D01*
X70464524Y32374705D02*
X70512143Y32469943D01*
X70512143Y32469943D02*
X70559762Y32517562D01*
X70559762Y32517562D02*
X70655000Y32565181D01*
X71369286Y32469943D02*
X71416905Y32517562D01*
X71416905Y32517562D02*
X71512143Y32565181D01*
X71512143Y32565181D02*
X71750238Y32565181D01*
X71750238Y32565181D02*
X71845476Y32517562D01*
X71845476Y32517562D02*
X71893095Y32469943D01*
X71893095Y32469943D02*
X71940714Y32374705D01*
X71940714Y32374705D02*
X71940714Y32279467D01*
X71940714Y32279467D02*
X71893095Y32136610D01*
X71893095Y32136610D02*
X71321667Y31565181D01*
X71321667Y31565181D02*
X71940714Y31565181D01*
X72131191Y31469943D02*
X72893095Y31469943D01*
X73131191Y31565181D02*
X73131191Y32565181D01*
X73131191Y32565181D02*
X73512143Y32565181D01*
X73512143Y32565181D02*
X73607381Y32517562D01*
X73607381Y32517562D02*
X73655000Y32469943D01*
X73655000Y32469943D02*
X73702619Y32374705D01*
X73702619Y32374705D02*
X73702619Y32231848D01*
X73702619Y32231848D02*
X73655000Y32136610D01*
X73655000Y32136610D02*
X73607381Y32088991D01*
X73607381Y32088991D02*
X73512143Y32041372D01*
X73512143Y32041372D02*
X73131191Y32041372D01*
X74131191Y31565181D02*
X74131191Y32231848D01*
X74131191Y32565181D02*
X74083572Y32517562D01*
X74083572Y32517562D02*
X74131191Y32469943D01*
X74131191Y32469943D02*
X74178810Y32517562D01*
X74178810Y32517562D02*
X74131191Y32565181D01*
X74131191Y32565181D02*
X74131191Y32469943D01*
X74607381Y32231848D02*
X74607381Y31565181D01*
X74607381Y32136610D02*
X74655000Y32184229D01*
X74655000Y32184229D02*
X74750238Y32231848D01*
X74750238Y32231848D02*
X74893095Y32231848D01*
X74893095Y32231848D02*
X74988333Y32184229D01*
X74988333Y32184229D02*
X75035952Y32088991D01*
X75035952Y32088991D02*
X75035952Y31565181D01*
X66994819Y35226667D02*
X67709104Y35226667D01*
X67709104Y35226667D02*
X67851961Y35179048D01*
X67851961Y35179048D02*
X67947200Y35083810D01*
X67947200Y35083810D02*
X67994819Y34940953D01*
X67994819Y34940953D02*
X67994819Y34845715D01*
X66994819Y35607620D02*
X66994819Y36274286D01*
X66994819Y36274286D02*
X67994819Y35845715D01*
X54568152Y48839524D02*
X55234819Y48839524D01*
X54187200Y48601429D02*
X54901485Y48363334D01*
X54901485Y48363334D02*
X54901485Y48982381D01*
X55234819Y49363334D02*
X54234819Y49363334D01*
X54853866Y49458572D02*
X55234819Y49744286D01*
X54568152Y49744286D02*
X54949104Y49363334D01*
X54234819Y50077620D02*
X54234819Y50744286D01*
X54234819Y50744286D02*
X55234819Y50315715D01*
X57604819Y49363334D02*
X57128628Y49030001D01*
X57604819Y48791906D02*
X56604819Y48791906D01*
X56604819Y48791906D02*
X56604819Y49172858D01*
X56604819Y49172858D02*
X56652438Y49268096D01*
X56652438Y49268096D02*
X56700057Y49315715D01*
X56700057Y49315715D02*
X56795295Y49363334D01*
X56795295Y49363334D02*
X56938152Y49363334D01*
X56938152Y49363334D02*
X57033390Y49315715D01*
X57033390Y49315715D02*
X57081009Y49268096D01*
X57081009Y49268096D02*
X57128628Y49172858D01*
X57128628Y49172858D02*
X57128628Y48791906D01*
X56604819Y49696668D02*
X56604819Y50363334D01*
X56604819Y50363334D02*
X57604819Y49934763D01*
X41868152Y41219524D02*
X42534819Y41219524D01*
X41487200Y40981429D02*
X42201485Y40743334D01*
X42201485Y40743334D02*
X42201485Y41362381D01*
X42534819Y41743334D02*
X41534819Y41743334D01*
X42153866Y41838572D02*
X42534819Y42124286D01*
X41868152Y42124286D02*
X42249104Y41743334D01*
X41534819Y42457620D02*
X41534819Y43124286D01*
X41534819Y43124286D02*
X42534819Y42695715D01*
X44904819Y41743334D02*
X44428628Y41410001D01*
X44904819Y41171906D02*
X43904819Y41171906D01*
X43904819Y41171906D02*
X43904819Y41552858D01*
X43904819Y41552858D02*
X43952438Y41648096D01*
X43952438Y41648096D02*
X44000057Y41695715D01*
X44000057Y41695715D02*
X44095295Y41743334D01*
X44095295Y41743334D02*
X44238152Y41743334D01*
X44238152Y41743334D02*
X44333390Y41695715D01*
X44333390Y41695715D02*
X44381009Y41648096D01*
X44381009Y41648096D02*
X44428628Y41552858D01*
X44428628Y41552858D02*
X44428628Y41171906D01*
X44238152Y42600477D02*
X44904819Y42600477D01*
X43857200Y42362382D02*
X44571485Y42124287D01*
X44571485Y42124287D02*
X44571485Y42743334D01*
X45678152Y43759524D02*
X46344819Y43759524D01*
X45297200Y43521429D02*
X46011485Y43283334D01*
X46011485Y43283334D02*
X46011485Y43902381D01*
X46344819Y44283334D02*
X45344819Y44283334D01*
X45963866Y44378572D02*
X46344819Y44664286D01*
X45678152Y44664286D02*
X46059104Y44283334D01*
X45344819Y44997620D02*
X45344819Y45664286D01*
X45344819Y45664286D02*
X46344819Y45235715D01*
X48714819Y44283334D02*
X48238628Y43950001D01*
X48714819Y43711906D02*
X47714819Y43711906D01*
X47714819Y43711906D02*
X47714819Y44092858D01*
X47714819Y44092858D02*
X47762438Y44188096D01*
X47762438Y44188096D02*
X47810057Y44235715D01*
X47810057Y44235715D02*
X47905295Y44283334D01*
X47905295Y44283334D02*
X48048152Y44283334D01*
X48048152Y44283334D02*
X48143390Y44235715D01*
X48143390Y44235715D02*
X48191009Y44188096D01*
X48191009Y44188096D02*
X48238628Y44092858D01*
X48238628Y44092858D02*
X48238628Y43711906D01*
X47714819Y45188096D02*
X47714819Y44711906D01*
X47714819Y44711906D02*
X48191009Y44664287D01*
X48191009Y44664287D02*
X48143390Y44711906D01*
X48143390Y44711906D02*
X48095771Y44807144D01*
X48095771Y44807144D02*
X48095771Y45045239D01*
X48095771Y45045239D02*
X48143390Y45140477D01*
X48143390Y45140477D02*
X48191009Y45188096D01*
X48191009Y45188096D02*
X48286247Y45235715D01*
X48286247Y45235715D02*
X48524342Y45235715D01*
X48524342Y45235715D02*
X48619580Y45188096D01*
X48619580Y45188096D02*
X48667200Y45140477D01*
X48667200Y45140477D02*
X48714819Y45045239D01*
X48714819Y45045239D02*
X48714819Y44807144D01*
X48714819Y44807144D02*
X48667200Y44711906D01*
X48667200Y44711906D02*
X48619580Y44664287D01*
X28569580Y11895476D02*
X28617200Y11847857D01*
X28617200Y11847857D02*
X28664819Y11705000D01*
X28664819Y11705000D02*
X28664819Y11609762D01*
X28664819Y11609762D02*
X28617200Y11466905D01*
X28617200Y11466905D02*
X28521961Y11371667D01*
X28521961Y11371667D02*
X28426723Y11324048D01*
X28426723Y11324048D02*
X28236247Y11276429D01*
X28236247Y11276429D02*
X28093390Y11276429D01*
X28093390Y11276429D02*
X27902914Y11324048D01*
X27902914Y11324048D02*
X27807676Y11371667D01*
X27807676Y11371667D02*
X27712438Y11466905D01*
X27712438Y11466905D02*
X27664819Y11609762D01*
X27664819Y11609762D02*
X27664819Y11705000D01*
X27664819Y11705000D02*
X27712438Y11847857D01*
X27712438Y11847857D02*
X27760057Y11895476D01*
X28664819Y12466905D02*
X28617200Y12371667D01*
X28617200Y12371667D02*
X28569580Y12324048D01*
X28569580Y12324048D02*
X28474342Y12276429D01*
X28474342Y12276429D02*
X28188628Y12276429D01*
X28188628Y12276429D02*
X28093390Y12324048D01*
X28093390Y12324048D02*
X28045771Y12371667D01*
X28045771Y12371667D02*
X27998152Y12466905D01*
X27998152Y12466905D02*
X27998152Y12609762D01*
X27998152Y12609762D02*
X28045771Y12705000D01*
X28045771Y12705000D02*
X28093390Y12752619D01*
X28093390Y12752619D02*
X28188628Y12800238D01*
X28188628Y12800238D02*
X28474342Y12800238D01*
X28474342Y12800238D02*
X28569580Y12752619D01*
X28569580Y12752619D02*
X28617200Y12705000D01*
X28617200Y12705000D02*
X28664819Y12609762D01*
X28664819Y12609762D02*
X28664819Y12466905D01*
X27998152Y13228810D02*
X28664819Y13228810D01*
X28093390Y13228810D02*
X28045771Y13276429D01*
X28045771Y13276429D02*
X27998152Y13371667D01*
X27998152Y13371667D02*
X27998152Y13514524D01*
X27998152Y13514524D02*
X28045771Y13609762D01*
X28045771Y13609762D02*
X28141009Y13657381D01*
X28141009Y13657381D02*
X28664819Y13657381D01*
X27998152Y14133572D02*
X28664819Y14133572D01*
X28093390Y14133572D02*
X28045771Y14181191D01*
X28045771Y14181191D02*
X27998152Y14276429D01*
X27998152Y14276429D02*
X27998152Y14419286D01*
X27998152Y14419286D02*
X28045771Y14514524D01*
X28045771Y14514524D02*
X28141009Y14562143D01*
X28141009Y14562143D02*
X28664819Y14562143D01*
X28760057Y14800238D02*
X28760057Y15562143D01*
X27664819Y15990715D02*
X27664819Y16085953D01*
X27664819Y16085953D02*
X27712438Y16181191D01*
X27712438Y16181191D02*
X27760057Y16228810D01*
X27760057Y16228810D02*
X27855295Y16276429D01*
X27855295Y16276429D02*
X28045771Y16324048D01*
X28045771Y16324048D02*
X28283866Y16324048D01*
X28283866Y16324048D02*
X28474342Y16276429D01*
X28474342Y16276429D02*
X28569580Y16228810D01*
X28569580Y16228810D02*
X28617200Y16181191D01*
X28617200Y16181191D02*
X28664819Y16085953D01*
X28664819Y16085953D02*
X28664819Y15990715D01*
X28664819Y15990715D02*
X28617200Y15895477D01*
X28617200Y15895477D02*
X28569580Y15847858D01*
X28569580Y15847858D02*
X28474342Y15800239D01*
X28474342Y15800239D02*
X28283866Y15752620D01*
X28283866Y15752620D02*
X28045771Y15752620D01*
X28045771Y15752620D02*
X27855295Y15800239D01*
X27855295Y15800239D02*
X27760057Y15847858D01*
X27760057Y15847858D02*
X27712438Y15895477D01*
X27712438Y15895477D02*
X27664819Y15990715D01*
X28664819Y17276429D02*
X28664819Y16705001D01*
X28664819Y16990715D02*
X27664819Y16990715D01*
X27664819Y16990715D02*
X27807676Y16895477D01*
X27807676Y16895477D02*
X27902914Y16800239D01*
X27902914Y16800239D02*
X27950533Y16705001D01*
X28664819Y17609763D02*
X27998152Y18133572D01*
X27998152Y17609763D02*
X28664819Y18133572D01*
X27664819Y18705001D02*
X27664819Y18800239D01*
X27664819Y18800239D02*
X27712438Y18895477D01*
X27712438Y18895477D02*
X27760057Y18943096D01*
X27760057Y18943096D02*
X27855295Y18990715D01*
X27855295Y18990715D02*
X28045771Y19038334D01*
X28045771Y19038334D02*
X28283866Y19038334D01*
X28283866Y19038334D02*
X28474342Y18990715D01*
X28474342Y18990715D02*
X28569580Y18943096D01*
X28569580Y18943096D02*
X28617200Y18895477D01*
X28617200Y18895477D02*
X28664819Y18800239D01*
X28664819Y18800239D02*
X28664819Y18705001D01*
X28664819Y18705001D02*
X28617200Y18609763D01*
X28617200Y18609763D02*
X28569580Y18562144D01*
X28569580Y18562144D02*
X28474342Y18514525D01*
X28474342Y18514525D02*
X28283866Y18466906D01*
X28283866Y18466906D02*
X28045771Y18466906D01*
X28045771Y18466906D02*
X27855295Y18514525D01*
X27855295Y18514525D02*
X27760057Y18562144D01*
X27760057Y18562144D02*
X27712438Y18609763D01*
X27712438Y18609763D02*
X27664819Y18705001D01*
X27760057Y19419287D02*
X27712438Y19466906D01*
X27712438Y19466906D02*
X27664819Y19562144D01*
X27664819Y19562144D02*
X27664819Y19800239D01*
X27664819Y19800239D02*
X27712438Y19895477D01*
X27712438Y19895477D02*
X27760057Y19943096D01*
X27760057Y19943096D02*
X27855295Y19990715D01*
X27855295Y19990715D02*
X27950533Y19990715D01*
X27950533Y19990715D02*
X28093390Y19943096D01*
X28093390Y19943096D02*
X28664819Y19371668D01*
X28664819Y19371668D02*
X28664819Y19990715D01*
X28760057Y20181191D02*
X28760057Y20943096D01*
X28664819Y21181192D02*
X27664819Y21181192D01*
X27664819Y21181192D02*
X27664819Y21562144D01*
X27664819Y21562144D02*
X27712438Y21657382D01*
X27712438Y21657382D02*
X27760057Y21705001D01*
X27760057Y21705001D02*
X27855295Y21752620D01*
X27855295Y21752620D02*
X27998152Y21752620D01*
X27998152Y21752620D02*
X28093390Y21705001D01*
X28093390Y21705001D02*
X28141009Y21657382D01*
X28141009Y21657382D02*
X28188628Y21562144D01*
X28188628Y21562144D02*
X28188628Y21181192D01*
X28664819Y22181192D02*
X27998152Y22181192D01*
X27664819Y22181192D02*
X27712438Y22133573D01*
X27712438Y22133573D02*
X27760057Y22181192D01*
X27760057Y22181192D02*
X27712438Y22228811D01*
X27712438Y22228811D02*
X27664819Y22181192D01*
X27664819Y22181192D02*
X27760057Y22181192D01*
X27998152Y22657382D02*
X28664819Y22657382D01*
X28093390Y22657382D02*
X28045771Y22705001D01*
X28045771Y22705001D02*
X27998152Y22800239D01*
X27998152Y22800239D02*
X27998152Y22943096D01*
X27998152Y22943096D02*
X28045771Y23038334D01*
X28045771Y23038334D02*
X28141009Y23085953D01*
X28141009Y23085953D02*
X28664819Y23085953D01*
X31416666Y19365181D02*
X31416666Y18650896D01*
X31416666Y18650896D02*
X31369047Y18508039D01*
X31369047Y18508039D02*
X31273809Y18412800D01*
X31273809Y18412800D02*
X31130952Y18365181D01*
X31130952Y18365181D02*
X31035714Y18365181D01*
X32416666Y18365181D02*
X31845238Y18365181D01*
X32130952Y18365181D02*
X32130952Y19365181D01*
X32130952Y19365181D02*
X32035714Y19222324D01*
X32035714Y19222324D02*
X31940476Y19127086D01*
X31940476Y19127086D02*
X31845238Y19079467D01*
X36189580Y11895476D02*
X36237200Y11847857D01*
X36237200Y11847857D02*
X36284819Y11705000D01*
X36284819Y11705000D02*
X36284819Y11609762D01*
X36284819Y11609762D02*
X36237200Y11466905D01*
X36237200Y11466905D02*
X36141961Y11371667D01*
X36141961Y11371667D02*
X36046723Y11324048D01*
X36046723Y11324048D02*
X35856247Y11276429D01*
X35856247Y11276429D02*
X35713390Y11276429D01*
X35713390Y11276429D02*
X35522914Y11324048D01*
X35522914Y11324048D02*
X35427676Y11371667D01*
X35427676Y11371667D02*
X35332438Y11466905D01*
X35332438Y11466905D02*
X35284819Y11609762D01*
X35284819Y11609762D02*
X35284819Y11705000D01*
X35284819Y11705000D02*
X35332438Y11847857D01*
X35332438Y11847857D02*
X35380057Y11895476D01*
X36284819Y12466905D02*
X36237200Y12371667D01*
X36237200Y12371667D02*
X36189580Y12324048D01*
X36189580Y12324048D02*
X36094342Y12276429D01*
X36094342Y12276429D02*
X35808628Y12276429D01*
X35808628Y12276429D02*
X35713390Y12324048D01*
X35713390Y12324048D02*
X35665771Y12371667D01*
X35665771Y12371667D02*
X35618152Y12466905D01*
X35618152Y12466905D02*
X35618152Y12609762D01*
X35618152Y12609762D02*
X35665771Y12705000D01*
X35665771Y12705000D02*
X35713390Y12752619D01*
X35713390Y12752619D02*
X35808628Y12800238D01*
X35808628Y12800238D02*
X36094342Y12800238D01*
X36094342Y12800238D02*
X36189580Y12752619D01*
X36189580Y12752619D02*
X36237200Y12705000D01*
X36237200Y12705000D02*
X36284819Y12609762D01*
X36284819Y12609762D02*
X36284819Y12466905D01*
X35618152Y13228810D02*
X36284819Y13228810D01*
X35713390Y13228810D02*
X35665771Y13276429D01*
X35665771Y13276429D02*
X35618152Y13371667D01*
X35618152Y13371667D02*
X35618152Y13514524D01*
X35618152Y13514524D02*
X35665771Y13609762D01*
X35665771Y13609762D02*
X35761009Y13657381D01*
X35761009Y13657381D02*
X36284819Y13657381D01*
X35618152Y14133572D02*
X36284819Y14133572D01*
X35713390Y14133572D02*
X35665771Y14181191D01*
X35665771Y14181191D02*
X35618152Y14276429D01*
X35618152Y14276429D02*
X35618152Y14419286D01*
X35618152Y14419286D02*
X35665771Y14514524D01*
X35665771Y14514524D02*
X35761009Y14562143D01*
X35761009Y14562143D02*
X36284819Y14562143D01*
X36380057Y14800238D02*
X36380057Y15562143D01*
X35284819Y15990715D02*
X35284819Y16085953D01*
X35284819Y16085953D02*
X35332438Y16181191D01*
X35332438Y16181191D02*
X35380057Y16228810D01*
X35380057Y16228810D02*
X35475295Y16276429D01*
X35475295Y16276429D02*
X35665771Y16324048D01*
X35665771Y16324048D02*
X35903866Y16324048D01*
X35903866Y16324048D02*
X36094342Y16276429D01*
X36094342Y16276429D02*
X36189580Y16228810D01*
X36189580Y16228810D02*
X36237200Y16181191D01*
X36237200Y16181191D02*
X36284819Y16085953D01*
X36284819Y16085953D02*
X36284819Y15990715D01*
X36284819Y15990715D02*
X36237200Y15895477D01*
X36237200Y15895477D02*
X36189580Y15847858D01*
X36189580Y15847858D02*
X36094342Y15800239D01*
X36094342Y15800239D02*
X35903866Y15752620D01*
X35903866Y15752620D02*
X35665771Y15752620D01*
X35665771Y15752620D02*
X35475295Y15800239D01*
X35475295Y15800239D02*
X35380057Y15847858D01*
X35380057Y15847858D02*
X35332438Y15895477D01*
X35332438Y15895477D02*
X35284819Y15990715D01*
X36284819Y17276429D02*
X36284819Y16705001D01*
X36284819Y16990715D02*
X35284819Y16990715D01*
X35284819Y16990715D02*
X35427676Y16895477D01*
X35427676Y16895477D02*
X35522914Y16800239D01*
X35522914Y16800239D02*
X35570533Y16705001D01*
X36284819Y17609763D02*
X35618152Y18133572D01*
X35618152Y17609763D02*
X36284819Y18133572D01*
X35284819Y18705001D02*
X35284819Y18800239D01*
X35284819Y18800239D02*
X35332438Y18895477D01*
X35332438Y18895477D02*
X35380057Y18943096D01*
X35380057Y18943096D02*
X35475295Y18990715D01*
X35475295Y18990715D02*
X35665771Y19038334D01*
X35665771Y19038334D02*
X35903866Y19038334D01*
X35903866Y19038334D02*
X36094342Y18990715D01*
X36094342Y18990715D02*
X36189580Y18943096D01*
X36189580Y18943096D02*
X36237200Y18895477D01*
X36237200Y18895477D02*
X36284819Y18800239D01*
X36284819Y18800239D02*
X36284819Y18705001D01*
X36284819Y18705001D02*
X36237200Y18609763D01*
X36237200Y18609763D02*
X36189580Y18562144D01*
X36189580Y18562144D02*
X36094342Y18514525D01*
X36094342Y18514525D02*
X35903866Y18466906D01*
X35903866Y18466906D02*
X35665771Y18466906D01*
X35665771Y18466906D02*
X35475295Y18514525D01*
X35475295Y18514525D02*
X35380057Y18562144D01*
X35380057Y18562144D02*
X35332438Y18609763D01*
X35332438Y18609763D02*
X35284819Y18705001D01*
X35380057Y19419287D02*
X35332438Y19466906D01*
X35332438Y19466906D02*
X35284819Y19562144D01*
X35284819Y19562144D02*
X35284819Y19800239D01*
X35284819Y19800239D02*
X35332438Y19895477D01*
X35332438Y19895477D02*
X35380057Y19943096D01*
X35380057Y19943096D02*
X35475295Y19990715D01*
X35475295Y19990715D02*
X35570533Y19990715D01*
X35570533Y19990715D02*
X35713390Y19943096D01*
X35713390Y19943096D02*
X36284819Y19371668D01*
X36284819Y19371668D02*
X36284819Y19990715D01*
X36380057Y20181191D02*
X36380057Y20943096D01*
X36284819Y21181192D02*
X35284819Y21181192D01*
X35284819Y21181192D02*
X35284819Y21562144D01*
X35284819Y21562144D02*
X35332438Y21657382D01*
X35332438Y21657382D02*
X35380057Y21705001D01*
X35380057Y21705001D02*
X35475295Y21752620D01*
X35475295Y21752620D02*
X35618152Y21752620D01*
X35618152Y21752620D02*
X35713390Y21705001D01*
X35713390Y21705001D02*
X35761009Y21657382D01*
X35761009Y21657382D02*
X35808628Y21562144D01*
X35808628Y21562144D02*
X35808628Y21181192D01*
X36284819Y22181192D02*
X35618152Y22181192D01*
X35284819Y22181192D02*
X35332438Y22133573D01*
X35332438Y22133573D02*
X35380057Y22181192D01*
X35380057Y22181192D02*
X35332438Y22228811D01*
X35332438Y22228811D02*
X35284819Y22181192D01*
X35284819Y22181192D02*
X35380057Y22181192D01*
X35618152Y22657382D02*
X36284819Y22657382D01*
X35713390Y22657382D02*
X35665771Y22705001D01*
X35665771Y22705001D02*
X35618152Y22800239D01*
X35618152Y22800239D02*
X35618152Y22943096D01*
X35618152Y22943096D02*
X35665771Y23038334D01*
X35665771Y23038334D02*
X35761009Y23085953D01*
X35761009Y23085953D02*
X36284819Y23085953D01*
X39036666Y19365181D02*
X39036666Y18650896D01*
X39036666Y18650896D02*
X38989047Y18508039D01*
X38989047Y18508039D02*
X38893809Y18412800D01*
X38893809Y18412800D02*
X38750952Y18365181D01*
X38750952Y18365181D02*
X38655714Y18365181D01*
X39465238Y19269943D02*
X39512857Y19317562D01*
X39512857Y19317562D02*
X39608095Y19365181D01*
X39608095Y19365181D02*
X39846190Y19365181D01*
X39846190Y19365181D02*
X39941428Y19317562D01*
X39941428Y19317562D02*
X39989047Y19269943D01*
X39989047Y19269943D02*
X40036666Y19174705D01*
X40036666Y19174705D02*
X40036666Y19079467D01*
X40036666Y19079467D02*
X39989047Y18936610D01*
X39989047Y18936610D02*
X39417619Y18365181D01*
X39417619Y18365181D02*
X40036666Y18365181D01*
X58378152Y51379524D02*
X59044819Y51379524D01*
X57997200Y51141429D02*
X58711485Y50903334D01*
X58711485Y50903334D02*
X58711485Y51522381D01*
X59044819Y51903334D02*
X58044819Y51903334D01*
X58663866Y51998572D02*
X59044819Y52284286D01*
X58378152Y52284286D02*
X58759104Y51903334D01*
X58044819Y52617620D02*
X58044819Y53284286D01*
X58044819Y53284286D02*
X59044819Y52855715D01*
X61414819Y51903334D02*
X60938628Y51570001D01*
X61414819Y51331906D02*
X60414819Y51331906D01*
X60414819Y51331906D02*
X60414819Y51712858D01*
X60414819Y51712858D02*
X60462438Y51808096D01*
X60462438Y51808096D02*
X60510057Y51855715D01*
X60510057Y51855715D02*
X60605295Y51903334D01*
X60605295Y51903334D02*
X60748152Y51903334D01*
X60748152Y51903334D02*
X60843390Y51855715D01*
X60843390Y51855715D02*
X60891009Y51808096D01*
X60891009Y51808096D02*
X60938628Y51712858D01*
X60938628Y51712858D02*
X60938628Y51331906D01*
X60843390Y52474763D02*
X60795771Y52379525D01*
X60795771Y52379525D02*
X60748152Y52331906D01*
X60748152Y52331906D02*
X60652914Y52284287D01*
X60652914Y52284287D02*
X60605295Y52284287D01*
X60605295Y52284287D02*
X60510057Y52331906D01*
X60510057Y52331906D02*
X60462438Y52379525D01*
X60462438Y52379525D02*
X60414819Y52474763D01*
X60414819Y52474763D02*
X60414819Y52665239D01*
X60414819Y52665239D02*
X60462438Y52760477D01*
X60462438Y52760477D02*
X60510057Y52808096D01*
X60510057Y52808096D02*
X60605295Y52855715D01*
X60605295Y52855715D02*
X60652914Y52855715D01*
X60652914Y52855715D02*
X60748152Y52808096D01*
X60748152Y52808096D02*
X60795771Y52760477D01*
X60795771Y52760477D02*
X60843390Y52665239D01*
X60843390Y52665239D02*
X60843390Y52474763D01*
X60843390Y52474763D02*
X60891009Y52379525D01*
X60891009Y52379525D02*
X60938628Y52331906D01*
X60938628Y52331906D02*
X61033866Y52284287D01*
X61033866Y52284287D02*
X61224342Y52284287D01*
X61224342Y52284287D02*
X61319580Y52331906D01*
X61319580Y52331906D02*
X61367200Y52379525D01*
X61367200Y52379525D02*
X61414819Y52474763D01*
X61414819Y52474763D02*
X61414819Y52665239D01*
X61414819Y52665239D02*
X61367200Y52760477D01*
X61367200Y52760477D02*
X61319580Y52808096D01*
X61319580Y52808096D02*
X61224342Y52855715D01*
X61224342Y52855715D02*
X61033866Y52855715D01*
X61033866Y52855715D02*
X60938628Y52808096D01*
X60938628Y52808096D02*
X60891009Y52760477D01*
X60891009Y52760477D02*
X60843390Y52665239D01*
D11*
%TO.C,R3*%
X39390000Y42520000D02*
X39390000Y36220000D01*
X39390000Y36220000D02*
X41890000Y36220000D01*
X40640000Y46990000D02*
X40640000Y42520000D01*
X40640000Y31750000D02*
X40640000Y36220000D01*
X41890000Y42520000D02*
X39390000Y42520000D01*
X41890000Y36220000D02*
X41890000Y42520000D01*
%TO.C,R6*%
X52090000Y50140000D02*
X52090000Y43840000D01*
X52090000Y43840000D02*
X54590000Y43840000D01*
X53340000Y54610000D02*
X53340000Y50140000D01*
X53340000Y39370000D02*
X53340000Y43840000D01*
X54590000Y50140000D02*
X52090000Y50140000D01*
X54590000Y43840000D02*
X54590000Y50140000D01*
%TO.C,J6*%
X64450000Y29530000D02*
X64450000Y28890000D01*
X64450000Y29530000D02*
X66270000Y29530000D01*
X64450000Y28890000D02*
X66270000Y28890000D01*
X64450000Y26990000D02*
X64450000Y26350000D01*
X64450000Y26990000D02*
X66270000Y26990000D01*
X64450000Y26350000D02*
X66270000Y26350000D01*
X66270000Y29845000D02*
X66905000Y30480000D01*
X66270000Y25400000D02*
X66270000Y29845000D01*
X66905000Y30480000D02*
X68810000Y30480000D01*
X68810000Y30480000D02*
X68810000Y25400000D01*
X68810000Y29530000D02*
X74810000Y29530000D01*
X68810000Y28890000D02*
X74810000Y28890000D01*
X68810000Y26990000D02*
X74810000Y26990000D01*
X68810000Y26350000D02*
X74810000Y26350000D01*
X68810000Y25400000D02*
X66270000Y25400000D01*
X74810000Y29530000D02*
X74810000Y28890000D01*
X74810000Y26990000D02*
X74810000Y26350000D01*
%TO.C,A1*%
X9320000Y57150000D02*
X10590000Y58420000D01*
X9320000Y15240000D02*
X9320000Y57150000D01*
X10590000Y58420000D02*
X27100000Y58420000D01*
X14400000Y22860000D02*
X22020000Y22860000D01*
X14400000Y12700000D02*
X14400000Y22860000D01*
X22020000Y22860000D02*
X22020000Y12700000D01*
X22020000Y12700000D02*
X14400000Y12700000D01*
X27100000Y58420000D02*
X27100000Y15240000D01*
X27100000Y15240000D02*
X9320000Y15240000D01*
%TO.C,J8*%
X64450000Y44770000D02*
X64450000Y44130000D01*
X64450000Y44770000D02*
X66270000Y44770000D01*
X64450000Y44130000D02*
X66270000Y44130000D01*
X64450000Y42230000D02*
X64450000Y41590000D01*
X64450000Y42230000D02*
X66270000Y42230000D01*
X64450000Y41590000D02*
X66270000Y41590000D01*
X66270000Y45085000D02*
X66905000Y45720000D01*
X66270000Y40640000D02*
X66270000Y45085000D01*
X66905000Y45720000D02*
X68810000Y45720000D01*
X68810000Y45720000D02*
X68810000Y40640000D01*
X68810000Y44770000D02*
X74810000Y44770000D01*
X68810000Y44130000D02*
X74810000Y44130000D01*
X68810000Y42230000D02*
X74810000Y42230000D01*
X68810000Y41590000D02*
X74810000Y41590000D01*
X68810000Y40640000D02*
X66270000Y40640000D01*
X74810000Y44770000D02*
X74810000Y44130000D01*
X74810000Y42230000D02*
X74810000Y41590000D01*
%TO.C,J4*%
X52070000Y20090000D02*
X56515000Y20090000D01*
X52070000Y17550000D02*
X52070000Y20090000D01*
X53020000Y21910000D02*
X53020000Y20090000D01*
X53020000Y17550000D02*
X53020000Y11550000D01*
X53660000Y21910000D02*
X53020000Y21910000D01*
X53660000Y21910000D02*
X53660000Y20090000D01*
X53660000Y17550000D02*
X53660000Y11550000D01*
X53660000Y11550000D02*
X53020000Y11550000D01*
X55560000Y21910000D02*
X55560000Y20090000D01*
X55560000Y17550000D02*
X55560000Y11550000D01*
X56200000Y21910000D02*
X55560000Y21910000D01*
X56200000Y21910000D02*
X56200000Y20090000D01*
X56200000Y17550000D02*
X56200000Y11550000D01*
X56200000Y11550000D02*
X55560000Y11550000D01*
X56515000Y20090000D02*
X57150000Y19455000D01*
X57150000Y19455000D02*
X57150000Y17550000D01*
X57150000Y17550000D02*
X52070000Y17550000D01*
%TO.C,J3*%
X44450000Y20090000D02*
X48895000Y20090000D01*
X44450000Y17550000D02*
X44450000Y20090000D01*
X45400000Y21910000D02*
X45400000Y20090000D01*
X45400000Y17550000D02*
X45400000Y11550000D01*
X46040000Y21910000D02*
X45400000Y21910000D01*
X46040000Y21910000D02*
X46040000Y20090000D01*
X46040000Y17550000D02*
X46040000Y11550000D01*
X46040000Y11550000D02*
X45400000Y11550000D01*
X47940000Y21910000D02*
X47940000Y20090000D01*
X47940000Y17550000D02*
X47940000Y11550000D01*
X48580000Y21910000D02*
X47940000Y21910000D01*
X48580000Y21910000D02*
X48580000Y20090000D01*
X48580000Y17550000D02*
X48580000Y11550000D01*
X48580000Y11550000D02*
X47940000Y11550000D01*
X48895000Y20090000D02*
X49530000Y19455000D01*
X49530000Y19455000D02*
X49530000Y17550000D01*
X49530000Y17550000D02*
X44450000Y17550000D01*
%TO.C,R1*%
X31420000Y41330000D02*
X31420000Y32330000D01*
X31420000Y32330000D02*
X34620000Y32330000D01*
X33020000Y46990000D02*
X33020000Y41330000D01*
X33020000Y26670000D02*
X33020000Y32330000D01*
X34620000Y41330000D02*
X31420000Y41330000D01*
X34620000Y32330000D02*
X34620000Y41330000D01*
%TO.C,J5*%
X64450000Y21910000D02*
X64450000Y21270000D01*
X64450000Y21910000D02*
X66270000Y21910000D01*
X64450000Y21270000D02*
X66270000Y21270000D01*
X64450000Y19370000D02*
X64450000Y18730000D01*
X64450000Y19370000D02*
X66270000Y19370000D01*
X64450000Y18730000D02*
X66270000Y18730000D01*
X66270000Y22225000D02*
X66905000Y22860000D01*
X66270000Y17780000D02*
X66270000Y22225000D01*
X66905000Y22860000D02*
X68810000Y22860000D01*
X68810000Y22860000D02*
X68810000Y17780000D01*
X68810000Y21910000D02*
X74810000Y21910000D01*
X68810000Y21270000D02*
X74810000Y21270000D01*
X68810000Y19370000D02*
X74810000Y19370000D01*
X68810000Y18730000D02*
X74810000Y18730000D01*
X68810000Y17780000D02*
X66270000Y17780000D01*
X74810000Y21910000D02*
X74810000Y21270000D01*
X74810000Y19370000D02*
X74810000Y18730000D01*
%TO.C,R2*%
X35230000Y43870000D02*
X35230000Y34870000D01*
X35230000Y34870000D02*
X38430000Y34870000D01*
X36830000Y49530000D02*
X36830000Y43870000D01*
X36830000Y29210000D02*
X36830000Y34870000D01*
X38430000Y43870000D02*
X35230000Y43870000D01*
X38430000Y34870000D02*
X38430000Y43870000D01*
%TO.C,J7*%
X64450000Y37150000D02*
X64450000Y36510000D01*
X64450000Y37150000D02*
X66270000Y37150000D01*
X64450000Y36510000D02*
X66270000Y36510000D01*
X64450000Y34610000D02*
X64450000Y33970000D01*
X64450000Y34610000D02*
X66270000Y34610000D01*
X64450000Y33970000D02*
X66270000Y33970000D01*
X66270000Y37465000D02*
X66905000Y38100000D01*
X66270000Y33020000D02*
X66270000Y37465000D01*
X66905000Y38100000D02*
X68810000Y38100000D01*
X68810000Y38100000D02*
X68810000Y33020000D01*
X68810000Y37150000D02*
X74810000Y37150000D01*
X68810000Y36510000D02*
X74810000Y36510000D01*
X68810000Y34610000D02*
X74810000Y34610000D01*
X68810000Y33970000D02*
X74810000Y33970000D01*
X68810000Y33020000D02*
X66270000Y33020000D01*
X74810000Y37150000D02*
X74810000Y36510000D01*
X74810000Y34610000D02*
X74810000Y33970000D01*
%TO.C,R7*%
X55900000Y52680000D02*
X55900000Y46380000D01*
X55900000Y46380000D02*
X58400000Y46380000D01*
X57150000Y57150000D02*
X57150000Y52680000D01*
X57150000Y41910000D02*
X57150000Y46380000D01*
X58400000Y52680000D02*
X55900000Y52680000D01*
X58400000Y46380000D02*
X58400000Y52680000D01*
%TO.C,R4*%
X43200000Y45060000D02*
X43200000Y38760000D01*
X43200000Y38760000D02*
X45700000Y38760000D01*
X44450000Y49530000D02*
X44450000Y45060000D01*
X44450000Y34290000D02*
X44450000Y38760000D01*
X45700000Y45060000D02*
X43200000Y45060000D01*
X45700000Y38760000D02*
X45700000Y45060000D01*
%TO.C,R5*%
X47010000Y47600000D02*
X47010000Y41300000D01*
X47010000Y41300000D02*
X49510000Y41300000D01*
X48260000Y52070000D02*
X48260000Y47600000D01*
X48260000Y36830000D02*
X48260000Y41300000D01*
X49510000Y47600000D02*
X47010000Y47600000D01*
X49510000Y41300000D02*
X49510000Y47600000D01*
%TO.C,J1*%
X29210000Y20090000D02*
X33655000Y20090000D01*
X29210000Y17550000D02*
X29210000Y20090000D01*
X30160000Y21910000D02*
X30160000Y20090000D01*
X30160000Y17550000D02*
X30160000Y11550000D01*
X30800000Y21910000D02*
X30160000Y21910000D01*
X30800000Y21910000D02*
X30800000Y20090000D01*
X30800000Y17550000D02*
X30800000Y11550000D01*
X30800000Y11550000D02*
X30160000Y11550000D01*
X32700000Y21910000D02*
X32700000Y20090000D01*
X32700000Y17550000D02*
X32700000Y11550000D01*
X33340000Y21910000D02*
X32700000Y21910000D01*
X33340000Y21910000D02*
X33340000Y20090000D01*
X33340000Y17550000D02*
X33340000Y11550000D01*
X33340000Y11550000D02*
X32700000Y11550000D01*
X33655000Y20090000D02*
X34290000Y19455000D01*
X34290000Y19455000D02*
X34290000Y17550000D01*
X34290000Y17550000D02*
X29210000Y17550000D01*
%TO.C,J2*%
X36830000Y20090000D02*
X41275000Y20090000D01*
X36830000Y17550000D02*
X36830000Y20090000D01*
X37780000Y21910000D02*
X37780000Y20090000D01*
X37780000Y17550000D02*
X37780000Y11550000D01*
X38420000Y21910000D02*
X37780000Y21910000D01*
X38420000Y21910000D02*
X38420000Y20090000D01*
X38420000Y17550000D02*
X38420000Y11550000D01*
X38420000Y11550000D02*
X37780000Y11550000D01*
X40320000Y21910000D02*
X40320000Y20090000D01*
X40320000Y17550000D02*
X40320000Y11550000D01*
X40960000Y21910000D02*
X40320000Y21910000D01*
X40960000Y21910000D02*
X40960000Y20090000D01*
X40960000Y17550000D02*
X40960000Y11550000D01*
X40960000Y11550000D02*
X40320000Y11550000D01*
X41275000Y20090000D02*
X41910000Y19455000D01*
X41910000Y19455000D02*
X41910000Y17550000D01*
X41910000Y17550000D02*
X36830000Y17550000D01*
%TO.C,R8*%
X59710000Y55220000D02*
X59710000Y48920000D01*
X59710000Y48920000D02*
X62210000Y48920000D01*
X60960000Y59690000D02*
X60960000Y55220000D01*
X60960000Y44450000D02*
X60960000Y48920000D01*
X62210000Y55220000D02*
X59710000Y55220000D01*
X62210000Y48920000D02*
X62210000Y55220000D01*
%TD*%
M02*
