%TF.GenerationSoftware,KiCad,Pcbnew,8.0.6*%
%TF.CreationDate,2025-03-08T18:58:06-08:00*%
%TF.ProjectId,8CH Thermal Monitor,38434820-5468-4657-926d-616c204d6f6e,rev?*%
%TF.SameCoordinates,PX7df6180PY8670810*%
%TF.FileFunction,Copper,L1,Top*%
%TF.FilePolarity,Positive*%
%FSLAX46Y46*%
G04 Gerber Fmt 4.6, Leading zero omitted, Abs format (unit mm)*
G04 Created by KiCad (PCBNEW 8.0.6) date 2025-03-08 18:58:06*
%MOMM*%
%LPD*%
G01*
G04 APERTURE LIST*
%TA.AperFunction,ComponentPad*%
%ADD10C,1.600000*%
%TD*%
%TA.AperFunction,ComponentPad*%
%ADD11O,1.600000X1.600000*%
%TD*%
%TA.AperFunction,ComponentPad*%
%ADD12R,1.700000X1.700000*%
%TD*%
%TA.AperFunction,ComponentPad*%
%ADD13O,1.700000X1.700000*%
%TD*%
%TA.AperFunction,ComponentPad*%
%ADD14R,1.600000X1.600000*%
%TD*%
G04 APERTURE END LIST*
D10*
%TO.P,R3,1*%
%TO.N,+5V*%
X40640000Y46990000D03*
D11*
%TO.P,R3,2*%
%TO.N,Net-(A1-A2)*%
X40640000Y31750000D03*
%TD*%
D10*
%TO.P,R6,1*%
%TO.N,+5V*%
X53340000Y54610000D03*
D11*
%TO.P,R6,2*%
%TO.N,Net-(A1-A5)*%
X53340000Y39370000D03*
%TD*%
D12*
%TO.P,J6,1,Pin_1*%
%TO.N,Net-(A1-A5)*%
X64770000Y29210000D03*
D13*
%TO.P,J6,2,Pin_2*%
%TO.N,GND*%
X64770000Y26670000D03*
%TD*%
D14*
%TO.P,A1,1,D1/TX*%
%TO.N,unconnected-(A1-D1{slash}TX-Pad1)*%
X10590000Y54610000D03*
D11*
%TO.P,A1,2,D0/RX*%
%TO.N,unconnected-(A1-D0{slash}RX-Pad2)*%
X10590000Y52070000D03*
%TO.P,A1,3,~{RESET}*%
%TO.N,unconnected-(A1-~{RESET}-Pad3)*%
X10590000Y49530000D03*
%TO.P,A1,4,GND*%
%TO.N,GND*%
X10590000Y46990000D03*
%TO.P,A1,5,D2*%
%TO.N,unconnected-(A1-D2-Pad5)*%
X10590000Y44450000D03*
%TO.P,A1,6,D3*%
%TO.N,unconnected-(A1-D3-Pad6)*%
X10590000Y41910000D03*
%TO.P,A1,7,D4*%
%TO.N,unconnected-(A1-D4-Pad7)*%
X10590000Y39370000D03*
%TO.P,A1,8,D5*%
%TO.N,unconnected-(A1-D5-Pad8)*%
X10590000Y36830000D03*
%TO.P,A1,9,D6*%
%TO.N,unconnected-(A1-D6-Pad9)*%
X10590000Y34290000D03*
%TO.P,A1,10,D7*%
%TO.N,unconnected-(A1-D7-Pad10)*%
X10590000Y31750000D03*
%TO.P,A1,11,D8*%
%TO.N,unconnected-(A1-D8-Pad11)*%
X10590000Y29210000D03*
%TO.P,A1,12,D9*%
%TO.N,unconnected-(A1-D9-Pad12)*%
X10590000Y26670000D03*
%TO.P,A1,13,D10*%
%TO.N,unconnected-(A1-D10-Pad13)*%
X10590000Y24130000D03*
%TO.P,A1,14,D11*%
%TO.N,unconnected-(A1-D11-Pad14)*%
X10590000Y21590000D03*
%TO.P,A1,15,D12*%
%TO.N,unconnected-(A1-D12-Pad15)*%
X10590000Y19050000D03*
%TO.P,A1,16,D13*%
%TO.N,unconnected-(A1-D13-Pad16)*%
X25830000Y19050000D03*
%TO.P,A1,17,3V3*%
%TO.N,unconnected-(A1-3V3-Pad17)*%
X25830000Y21590000D03*
%TO.P,A1,18,AREF*%
%TO.N,unconnected-(A1-AREF-Pad18)*%
X25830000Y24130000D03*
%TO.P,A1,19,A0*%
%TO.N,Net-(A1-A0)*%
X25830000Y26670000D03*
%TO.P,A1,20,A1*%
%TO.N,Net-(A1-A1)*%
X25830000Y29210000D03*
%TO.P,A1,21,A2*%
%TO.N,Net-(A1-A2)*%
X25830000Y31750000D03*
%TO.P,A1,22,A3*%
%TO.N,Net-(A1-A3)*%
X25830000Y34290000D03*
%TO.P,A1,23,A4*%
%TO.N,Net-(A1-A4)*%
X25830000Y36830000D03*
%TO.P,A1,24,A5*%
%TO.N,Net-(A1-A5)*%
X25830000Y39370000D03*
%TO.P,A1,25,A6*%
%TO.N,Net-(A1-A6)*%
X25830000Y41910000D03*
%TO.P,A1,26,A7*%
%TO.N,Net-(A1-A7)*%
X25830000Y44450000D03*
%TO.P,A1,27,+5V*%
%TO.N,+5V*%
X25830000Y46990000D03*
%TO.P,A1,28,~{RESET}*%
%TO.N,unconnected-(A1-~{RESET}-Pad28)*%
X25830000Y49530000D03*
%TO.P,A1,29,GND*%
%TO.N,GND*%
X25830000Y52070000D03*
%TO.P,A1,30,VIN*%
%TO.N,unconnected-(A1-VIN-Pad30)*%
X25830000Y54610000D03*
%TD*%
D12*
%TO.P,J8,1,Pin_1*%
%TO.N,Net-(A1-A7)*%
X64770000Y44450000D03*
D13*
%TO.P,J8,2,Pin_2*%
%TO.N,GND*%
X64770000Y41910000D03*
%TD*%
D12*
%TO.P,J4,1,Pin_1*%
%TO.N,Net-(A1-A3)*%
X55880000Y21590000D03*
D13*
%TO.P,J4,2,Pin_2*%
%TO.N,GND*%
X53340000Y21590000D03*
%TD*%
D12*
%TO.P,J3,1,Pin_1*%
%TO.N,Net-(A1-A2)*%
X48260000Y21590000D03*
D13*
%TO.P,J3,2,Pin_2*%
%TO.N,GND*%
X45720000Y21590000D03*
%TD*%
D10*
%TO.P,R1,1*%
%TO.N,+5V*%
X33020000Y46990000D03*
D11*
%TO.P,R1,2*%
%TO.N,Net-(A1-A0)*%
X33020000Y26670000D03*
%TD*%
D12*
%TO.P,J5,1,Pin_1*%
%TO.N,Net-(A1-A4)*%
X64770000Y21590000D03*
D13*
%TO.P,J5,2,Pin_2*%
%TO.N,GND*%
X64770000Y19050000D03*
%TD*%
D10*
%TO.P,R2,1*%
%TO.N,+5V*%
X36830000Y49530000D03*
D11*
%TO.P,R2,2*%
%TO.N,Net-(A1-A1)*%
X36830000Y29210000D03*
%TD*%
D12*
%TO.P,J7,1,Pin_1*%
%TO.N,Net-(A1-A6)*%
X64770000Y36830000D03*
D13*
%TO.P,J7,2,Pin_2*%
%TO.N,GND*%
X64770000Y34290000D03*
%TD*%
D10*
%TO.P,R7,1*%
%TO.N,+5V*%
X57150000Y57150000D03*
D11*
%TO.P,R7,2*%
%TO.N,Net-(A1-A6)*%
X57150000Y41910000D03*
%TD*%
D10*
%TO.P,R4,1*%
%TO.N,+5V*%
X44450000Y49530000D03*
D11*
%TO.P,R4,2*%
%TO.N,Net-(A1-A3)*%
X44450000Y34290000D03*
%TD*%
D10*
%TO.P,R5,1*%
%TO.N,+5V*%
X48260000Y52070000D03*
D11*
%TO.P,R5,2*%
%TO.N,Net-(A1-A4)*%
X48260000Y36830000D03*
%TD*%
D12*
%TO.P,J1,1,Pin_1*%
%TO.N,Net-(A1-A0)*%
X33020000Y21590000D03*
D13*
%TO.P,J1,2,Pin_2*%
%TO.N,GND*%
X30480000Y21590000D03*
%TD*%
D12*
%TO.P,J2,1,Pin_1*%
%TO.N,Net-(A1-A1)*%
X40640000Y21590000D03*
D13*
%TO.P,J2,2,Pin_2*%
%TO.N,GND*%
X38100000Y21590000D03*
%TD*%
D10*
%TO.P,R8,1*%
%TO.N,+5V*%
X60960000Y59690000D03*
D11*
%TO.P,R8,2*%
%TO.N,Net-(A1-A7)*%
X60960000Y44450000D03*
%TD*%
M02*
