M48
; DRILL file {KiCad 8.0.6} date 2025-03-08T18:58:14-0800
; FORMAT={3:3/ absolute / metric / suppress leading zeros}
; #@! TF.CreationDate,2025-03-08T18:58:14-08:00
; #@! TF.GenerationSoftware,Kicad,Pcbnew,8.0.6
; #@! TF.FileFunction,Plated,1,2,PTH
FMAT,2
METRIC,TZ
; #@! TA.AperFunction,Plated,PTH,ComponentDrill
T1C0.800
; #@! TA.AperFunction,Plated,PTH,ComponentDrill
T2C1.000
%
G90
G05
T1
X33020Y46990
X33020Y26670
X36830Y49530
X36830Y29210
X40640Y46990
X40640Y31750
X44450Y49530
X44450Y34290
X48260Y52070
X48260Y36830
X53340Y54610
X53340Y39370
X57150Y57150
X57150Y41910
X60960Y59690
X60960Y44450
T2
X10590Y54610
X10590Y52070
X10590Y49530
X10590Y46990
X10590Y44450
X10590Y41910
X10590Y39370
X10590Y36830
X10590Y34290
X10590Y31750
X10590Y29210
X10590Y26670
X10590Y24130
X10590Y21590
X10590Y19050
X25830Y54610
X25830Y52070
X25830Y49530
X25830Y46990
X25830Y44450
X25830Y41910
X25830Y39370
X25830Y36830
X25830Y34290
X25830Y31750
X25830Y29210
X25830Y26670
X25830Y24130
X25830Y21590
X25830Y19050
X30480Y21590
X33020Y21590
X38100Y21590
X40640Y21590
X45720Y21590
X48260Y21590
X53340Y21590
X55880Y21590
X64770Y44450
X64770Y41910
X64770Y36830
X64770Y34290
X64770Y29210
X64770Y26670
X64770Y21590
X64770Y19050
M30
